<svg width="280" height="224" viewBox="0 0 280 224" fill="none" xmlns="http://www.w3.org/2000/svg">
<path d="M122.5 116.5L185 46" stroke="#515253" stroke-width="2"/>
<path d="M122.5 116.5L250 88" stroke="#515253" stroke-width="2"/>
<path d="M122.5 116.5L212.5 153.5" stroke="#515253" stroke-width="2"/>
<path d="M251 90L212.5 153.5" stroke="#515253" stroke-width="2"/>
<path d="M251 90L61.5 178.5" stroke="#515253" stroke-width="2"/>
<path d="M213 153L61.5 178.5" stroke="#515253" stroke-width="2"/>
<path d="M123 116L61.5 178.5" stroke="#515253" stroke-width="2"/>
<path d="M29 96.5L61.5 178.5" stroke="#515253" stroke-width="2"/>
<path d="M29 96.5L74.5 46" stroke="#515253" stroke-width="2"/>
<path d="M123.5 116L74.5 46" stroke="#515253" stroke-width="2"/>
<circle cx="123" cy="115" r="15.5" fill="#292A2B" stroke="#5F45D5" stroke-width="3"/>
<circle cx="185.5" cy="45.5" r="12.5" fill="#292A2B" stroke="#9D9D9F" stroke-width="2"/>
<circle cx="212.5" cy="152.5" r="12.5" fill="#292A2B" stroke="#9D9D9F" stroke-width="2"/>
<circle cx="61.5" cy="177.5" r="12.5" fill="#292A2B" stroke="#9D9D9F" stroke-width="2"/>
<circle cx="28.5" cy="95.5" r="12.5" fill="#292A2B" stroke="#9D9D9F" stroke-width="2"/>
<circle cx="74.5" cy="45.5" r="12.5" fill="#292A2B" stroke="#9D9D9F" stroke-width="2"/>
<circle cx="250.5" cy="87.5" r="12.5" fill="#292A2B" stroke="#9D9D9F" stroke-width="2"/>
</svg>
