<svg width="280" height="224" viewBox="0 0 280 224" fill="none" xmlns="http://www.w3.org/2000/svg">
<path d="M93 59C93 55.134 96.134 52 100 52H146C149.866 52 153 55.134 153 59V75C153 78.866 149.866 82 146 82H100C96.134 82 93 78.866 93 75V59Z" fill="#434344"/>
<path d="M107.408 67.0781C107.408 65.6506 108.319 64.8409 109.56 64.8409C110.742 64.8409 111.456 65.5866 111.456 66.8864V72H112.713V66.8011C112.713 64.6971 111.594 63.7116 109.922 63.7116C108.633 63.7116 107.898 64.2496 107.514 65.0966H107.408V61.0909H106.151V72H107.408V67.0781ZM117.421 72.1918C118.848 72.1918 119.594 71.4247 119.85 70.892H119.913V72H121.171V66.6094C121.171 64.0099 119.189 63.7116 118.145 63.7116C116.909 63.7116 115.503 64.1378 114.864 65.6293L116.057 66.0554C116.334 65.4588 116.989 64.8196 118.188 64.8196C119.343 64.8196 119.913 65.4322 119.913 66.4815V66.5241C119.913 67.1314 119.296 67.0781 117.804 67.2699C116.286 67.467 114.629 67.8026 114.629 69.6776C114.629 71.2756 115.865 72.1918 117.421 72.1918ZM117.612 71.0625C116.611 71.0625 115.886 70.6151 115.886 69.7415C115.886 68.7827 116.76 68.4844 117.74 68.3565C118.273 68.2926 119.7 68.1435 119.913 67.8878V69.0384C119.913 70.0611 119.104 71.0625 117.612 71.0625ZM123.635 72H124.85V70.7429H124.999C125.276 71.1903 125.809 72.1705 127.385 72.1705C129.431 72.1705 130.858 70.5298 130.858 67.9304C130.858 65.3523 129.431 63.7116 127.364 63.7116C125.766 63.7116 125.276 64.6918 124.999 65.1179H124.893V61.0909H123.635V72ZM124.871 67.9091C124.871 66.0767 125.681 64.8409 127.215 64.8409C128.813 64.8409 129.601 66.1832 129.601 67.9091C129.601 69.6562 128.792 71.0412 127.215 71.0412C125.702 71.0412 124.871 69.7628 124.871 67.9091ZM132.781 72H134.039V63.8182H132.781V72ZM133.421 62.4545C133.911 62.4545 134.316 62.071 134.316 61.6023C134.316 61.1335 133.911 60.75 133.421 60.75C132.931 60.75 132.526 61.1335 132.526 61.6023C132.526 62.071 132.931 62.4545 133.421 62.4545ZM139.899 63.8182H138.152V61.858H136.895V63.8182H135.659V64.8835H136.895V69.9972C136.895 71.4247 138.046 72.1065 139.111 72.1065C139.58 72.1065 139.878 72.0213 140.048 71.9574L139.793 70.8281C139.686 70.8494 139.516 70.892 139.239 70.892C138.685 70.892 138.152 70.7216 138.152 69.6562V64.8835H139.899V63.8182Z" fill="#9E9EA0"/>
<path d="M4 21C4 17.134 7.13401 14 11 14H54C57.866 14 61 17.134 61 21V37C61 40.866 57.866 44 54 44H11C7.13401 44 4 40.866 4 37V21Z" fill="#434344"/>
<path d="M17.321 34H18.642V30.0156H21.0284C23.5692 30.0156 24.7145 28.4709 24.7145 26.5426C24.7145 24.6143 23.5692 23.0909 21.0071 23.0909H17.321V34ZM18.642 28.8438V24.2628H20.9645C22.7383 24.2628 23.4148 25.2322 23.4148 26.5426C23.4148 27.853 22.7383 28.8438 20.9858 28.8438H18.642ZM26.8425 34H28.1635V30.4631L29.5272 28.929L33.3198 34H34.9178L30.3368 28.0128L34.9178 23.0909H33.1919L28.2914 28.5028H28.1635V23.0909H26.8425V34ZM36.6277 23.0909V34H37.8635V25.7116H37.97L41.3791 34H42.5723L45.9814 25.7116H46.0879V34H47.3237V23.0909H45.747L42.0396 32.1463H41.9118L38.2044 23.0909H36.6277Z" fill="#9E9EA0"/>
<path d="M4 59C4 55.134 7.13401 52 11 52H78C81.866 52 85 55.134 85 59V75C85 78.866 81.866 82 78 82H11C7.13401 82 4 78.866 4 75V59Z" fill="#5F45D5"/>
<path d="M20.2401 72.1705C21.8168 72.1705 22.3494 71.1903 22.6264 70.7429H22.7756V72H23.9901V61.0909H22.733V65.1179H22.6264C22.3494 64.6918 21.8594 63.7116 20.2614 63.7116C18.1946 63.7116 16.767 65.3523 16.767 67.9304C16.767 70.5298 18.1946 72.1705 20.2401 72.1705ZM20.4105 71.0412C18.8338 71.0412 18.0241 69.6562 18.0241 67.9091C18.0241 66.1832 18.8125 64.8409 20.4105 64.8409C21.9446 64.8409 22.7543 66.0767 22.7543 67.9091C22.7543 69.7628 21.9233 71.0412 20.4105 71.0412ZM29.8974 72.1705C31.5593 72.1705 32.7738 71.3395 33.1573 70.1037L31.9428 69.7628C31.6232 70.6151 30.8828 71.0412 29.8974 71.0412C28.4219 71.0412 27.4045 70.0877 27.3459 68.3352H33.2852V67.8026C33.2852 64.7557 31.4741 63.7116 29.7695 63.7116C27.5536 63.7116 26.0835 65.4588 26.0835 67.973C26.0835 70.4872 27.5323 72.1705 29.8974 72.1705ZM27.3459 67.2486C27.4311 65.9755 28.3313 64.8409 29.7695 64.8409C31.1332 64.8409 32.0067 65.8636 32.0067 67.2486H27.3459ZM41.6388 63.8182H40.2751L38.0166 70.3381H37.9314L35.6729 63.8182H34.3092L37.3348 72H38.6132L41.6388 63.8182ZM46.4355 72.1705C48.0974 72.1705 49.3119 71.3395 49.6954 70.1037L48.4809 69.7628C48.1613 70.6151 47.4209 71.0412 46.4355 71.0412C44.96 71.0412 43.9426 70.0877 43.884 68.3352H49.8232V67.8026C49.8232 64.7557 48.0122 63.7116 46.3076 63.7116C44.0917 63.7116 42.6215 65.4588 42.6215 67.973C42.6215 70.4872 44.0704 72.1705 46.4355 72.1705ZM43.884 67.2486C43.9692 65.9755 44.8694 64.8409 46.3076 64.8409C47.6713 64.8409 48.5448 65.8636 48.5448 67.2486H43.884ZM52.9926 61.0909H51.7355V72H52.9926V61.0909ZM58.619 72.1705C60.8349 72.1705 62.3263 70.4872 62.3263 67.9517C62.3263 65.3949 60.8349 63.7116 58.619 63.7116C56.4031 63.7116 54.9116 65.3949 54.9116 67.9517C54.9116 70.4872 56.4031 72.1705 58.619 72.1705ZM58.619 71.0412C56.9357 71.0412 56.1687 69.5923 56.1687 67.9517C56.1687 66.3111 56.9357 64.8409 58.619 64.8409C60.3022 64.8409 61.0692 66.3111 61.0692 67.9517C61.0692 69.5923 60.3022 71.0412 58.619 71.0412ZM64.2453 75.0682H65.5024V70.7429H65.6089C65.8859 71.1903 66.4186 72.1705 67.9953 72.1705C70.0407 72.1705 71.4683 70.5298 71.4683 67.9304C71.4683 65.3523 70.0407 63.7116 67.974 63.7116C66.376 63.7116 65.8859 64.6918 65.6089 65.1179H65.4598V63.8182H64.2453V75.0682ZM65.4811 67.9091C65.4811 66.0767 66.2907 64.8409 67.8248 64.8409C69.4229 64.8409 70.2112 66.1832 70.2112 67.9091C70.2112 69.6562 69.4015 71.0412 67.8248 71.0412C66.3121 71.0412 65.4811 69.7628 65.4811 67.9091Z" fill="white"/>
<path d="M132 21C132 17.134 135.134 14 139 14H207C210.866 14 214 17.134 214 21V37C214 40.866 210.866 44 207 44H139C135.134 44 132 40.866 132 37V21Z" fill="#434344"/>
<path d="M148.474 34.1705C150.286 34.1705 151.479 33.0625 151.692 31.6136H150.435C150.2 32.5085 149.455 33.0412 148.474 33.0412C146.983 33.0412 146.024 31.8054 146.024 29.9091C146.024 28.0554 147.004 26.8409 148.474 26.8409C149.582 26.8409 150.243 27.5227 150.435 28.2685H151.692C151.479 26.7344 150.179 25.7116 148.453 25.7116C146.237 25.7116 144.767 27.4588 144.767 29.9517C144.767 32.402 146.173 34.1705 148.474 34.1705ZM156.853 34.1705C159.069 34.1705 160.561 32.4872 160.561 29.9517C160.561 27.3949 159.069 25.7116 156.853 25.7116C154.637 25.7116 153.146 27.3949 153.146 29.9517C153.146 32.4872 154.637 34.1705 156.853 34.1705ZM156.853 33.0412C155.17 33.0412 154.403 31.5923 154.403 29.9517C154.403 28.3111 155.17 26.8409 156.853 26.8409C158.537 26.8409 159.304 28.3111 159.304 29.9517C159.304 31.5923 158.537 33.0412 156.853 33.0412ZM163.737 29.0781C163.737 27.6506 164.621 26.8409 165.825 26.8409C166.991 26.8409 167.7 27.6026 167.7 28.8864V34H168.957V28.8011C168.957 26.7131 167.844 25.7116 166.187 25.7116C164.951 25.7116 164.184 26.2656 163.801 27.0966H163.694V25.8182H162.48V34H163.737V29.0781ZM174.578 34.1705C176.389 34.1705 177.582 33.0625 177.795 31.6136H176.538C176.304 32.5085 175.558 33.0412 174.578 33.0412C173.086 33.0412 172.128 31.8054 172.128 29.9091C172.128 28.0554 173.108 26.8409 174.578 26.8409C175.686 26.8409 176.346 27.5227 176.538 28.2685H177.795C177.582 26.7344 176.282 25.7116 174.557 25.7116C172.341 25.7116 170.871 27.4588 170.871 29.9517C170.871 32.402 172.277 34.1705 174.578 34.1705ZM183.063 34.1705C184.725 34.1705 185.94 33.3395 186.323 32.1037L185.109 31.7628C184.789 32.6151 184.049 33.0412 183.063 33.0412C181.588 33.0412 180.57 32.0877 180.512 30.3352H186.451V29.8026C186.451 26.7557 184.64 25.7116 182.936 25.7116C180.72 25.7116 179.249 27.4588 179.249 29.973C179.249 32.4872 180.698 34.1705 183.063 34.1705ZM180.512 29.2486C180.597 27.9755 181.497 26.8409 182.936 26.8409C184.299 26.8409 185.173 27.8636 185.173 29.2486H180.512ZM188.363 37.0682H189.621V32.7429H189.727C190.004 33.1903 190.537 34.1705 192.113 34.1705C194.159 34.1705 195.586 32.5298 195.586 29.9304C195.586 27.3523 194.159 25.7116 192.092 25.7116C190.494 25.7116 190.004 26.6918 189.727 27.1179H189.578V25.8182H188.363V37.0682ZM189.599 29.9091C189.599 28.0767 190.409 26.8409 191.943 26.8409C193.541 26.8409 194.329 28.1832 194.329 29.9091C194.329 31.6562 193.52 33.0412 191.943 33.0412C190.43 33.0412 189.599 31.7628 189.599 29.9091ZM201.062 25.8182H199.315V23.858H198.058V25.8182H196.822V26.8835H198.058V31.9972C198.058 33.4247 199.209 34.1065 200.274 34.1065C200.743 34.1065 201.041 34.0213 201.211 33.9574L200.956 32.8281C200.849 32.8494 200.679 32.892 200.402 32.892C199.848 32.892 199.315 32.7216 199.315 31.6562V26.8835H201.062V25.8182Z" fill="#9E9EA0"/>
<path d="M4 97C4 93.134 7.13401 90 11 90H62C65.866 90 69 93.134 69 97V113C69 116.866 65.866 120 62 120H11C7.13401 120 4 116.866 4 113V97Z" fill="#434344"/>
<path d="M23.9901 113.068V101.818H22.7756V103.118H22.6264C22.3494 102.692 21.8594 101.712 20.2614 101.712C18.1946 101.712 16.767 103.352 16.767 105.93C16.767 108.53 18.1946 110.17 20.2401 110.17C21.8168 110.17 22.3494 109.19 22.6264 108.743H22.733V113.068H23.9901ZM22.7543 105.909C22.7543 107.763 21.9233 109.041 20.4105 109.041C18.8338 109.041 18.0241 107.656 18.0241 105.909C18.0241 104.183 18.8125 102.841 20.4105 102.841C21.9446 102.841 22.7543 104.077 22.7543 105.909ZM31.4474 106.655C31.4474 108.189 30.2756 108.892 29.3381 108.892C28.294 108.892 27.5483 108.125 27.5483 106.932V101.818H26.2912V107.017C26.2912 109.105 27.3991 110.107 28.9332 110.107C30.169 110.107 30.9787 109.446 31.3622 108.615H31.4474V110H32.7045V101.818H31.4474V106.655ZM38.3309 110.17C40.5468 110.17 42.0383 108.487 42.0383 105.952C42.0383 103.395 40.5468 101.712 38.3309 101.712C36.115 101.712 34.6235 103.395 34.6235 105.952C34.6235 108.487 36.115 110.17 38.3309 110.17ZM38.3309 109.041C36.6476 109.041 35.8806 107.592 35.8806 105.952C35.8806 104.311 36.6476 102.841 38.3309 102.841C40.0141 102.841 40.7812 104.311 40.7812 105.952C40.7812 107.592 40.0141 109.041 38.3309 109.041ZM47.5154 101.818H45.7683V99.858H44.5112V101.818H43.2754V102.884H44.5112V107.997C44.5112 109.425 45.6618 110.107 46.7271 110.107C47.1958 110.107 47.4941 110.021 47.6646 109.957L47.4089 108.828C47.3024 108.849 47.1319 108.892 46.8549 108.892C46.301 108.892 45.7683 108.722 45.7683 107.656V102.884H47.5154V101.818ZM52.7489 110.17C54.4109 110.17 55.6254 109.339 56.0089 108.104L54.7944 107.763C54.4748 108.615 53.7344 109.041 52.7489 109.041C51.2734 109.041 50.256 108.088 50.1974 106.335H56.1367V105.803C56.1367 102.756 54.3256 101.712 52.6211 101.712C50.4052 101.712 48.935 103.459 48.935 105.973C48.935 108.487 50.3839 110.17 52.7489 110.17ZM50.1974 105.249C50.2827 103.975 51.1829 102.841 52.6211 102.841C53.9847 102.841 54.8583 103.864 54.8583 105.249H50.1974Z" fill="#9E9EA0"/>
<path d="M69 21C69 17.134 72.134 14 76 14H117C120.866 14 124 17.134 124 21V37C124 40.866 120.866 44 117 44H76C72.134 44 69 40.866 69 37V21Z" fill="#434344"/>
<path d="M85.794 25.8182H83.9616V24.9872C83.9616 24.1776 84.3026 23.7514 85.1335 23.7514C85.4957 23.7514 85.7088 23.8366 85.8366 23.8793L86.1989 22.7926C86.0071 22.7074 85.6236 22.5795 85.0057 22.5795C83.8338 22.5795 82.7045 23.2827 82.7045 24.6889V25.8182H81.3835V26.8835H82.7045V34H83.9616V26.8835H85.794V25.8182ZM89.7291 34.1918C91.1567 34.1918 91.9024 33.4247 92.1581 32.892H92.222V34H93.4791V28.6094C93.4791 26.0099 91.4976 25.7116 90.4536 25.7116C89.2178 25.7116 87.8115 26.1378 87.1723 27.6293L88.3655 28.0554C88.6425 27.4588 89.2977 26.8196 90.4962 26.8196C91.6521 26.8196 92.222 27.4322 92.222 28.4815V28.5241C92.222 29.1314 91.6041 29.0781 90.1127 29.2699C88.5945 29.467 86.9379 29.8026 86.9379 31.6776C86.9379 33.2756 88.1737 34.1918 89.7291 34.1918ZM89.9209 33.0625C88.9195 33.0625 88.195 32.6151 88.195 31.7415C88.195 30.7827 89.0686 30.4844 90.0487 30.3565C90.5814 30.2926 92.009 30.1435 92.222 29.8878V31.0384C92.222 32.0611 91.4124 33.0625 89.9209 33.0625ZM102.171 25.8182H100.807L98.5488 32.3381H98.4636L96.2051 25.8182H94.8414L97.867 34H99.1454L102.171 25.8182ZM106.968 34.1705C108.63 34.1705 109.844 33.3395 110.228 32.1037L109.013 31.7628C108.694 32.6151 107.953 33.0412 106.968 33.0412C105.492 33.0412 104.475 32.0877 104.416 30.3352H110.355V29.8026C110.355 26.7557 108.544 25.7116 106.84 25.7116C104.624 25.7116 103.154 27.4588 103.154 29.973C103.154 32.4872 104.603 34.1705 106.968 34.1705ZM104.416 29.2486C104.501 27.9755 105.402 26.8409 106.84 26.8409C108.203 26.8409 109.077 27.8636 109.077 29.2486H104.416Z" fill="#9E9EA0"/>
</svg>
