<svg width="281" height="224" viewBox="0 0 281 224" fill="none" xmlns="http://www.w3.org/2000/svg">
<rect x="123" y="28" width="35" height="28" rx="4" fill="#434344"/>
<path d="M148.225 38.8182H146.729L144.188 40.4787V41.9503L146.624 40.3594H146.684V49H148.225V38.8182Z" fill="#9C9C9E"/>
<rect x="123" y="60" width="35" height="28" rx="4" fill="#434344"/>
<path d="M145.574 81.1392C147.692 81.1392 149.188 79.9361 149.198 78.2855C149.188 77.0028 148.289 75.924 147.15 75.7202V75.6605C148.139 75.4219 148.811 74.4922 148.82 73.3935C148.811 71.8374 147.438 70.679 145.574 70.679C143.69 70.679 142.318 71.8374 142.328 73.3935C142.318 74.4872 142.989 75.4219 143.998 75.6605V75.7202C142.84 75.924 141.94 77.0028 141.95 78.2855C141.94 79.9361 143.436 81.1392 145.574 81.1392ZM145.574 79.8814C144.301 79.8814 143.496 79.2053 143.506 78.1861C143.496 77.1271 144.371 76.3714 145.574 76.3714C146.757 76.3714 147.632 77.1271 147.642 78.1861C147.632 79.2053 146.832 79.8814 145.574 79.8814ZM145.574 75.1435C144.545 75.1435 143.814 74.4922 143.824 73.5227C143.814 72.5682 144.52 71.9368 145.574 71.9368C146.608 71.9368 147.314 72.5682 147.324 73.5227C147.314 74.4922 146.588 75.1435 145.574 75.1435Z" fill="#9C9C9E"/>
<rect x="123" y="92" width="35" height="28" rx="4" fill="#434344"/>
<path d="M139.325 102.818H137.828L135.288 104.479V105.95L137.724 104.359H137.784V113H139.325V102.818ZM145.634 113.139C147.762 113.159 149.173 111.628 149.169 109.674C149.173 107.725 147.757 106.328 145.992 106.328C144.918 106.328 143.988 106.845 143.466 107.705H143.392C143.396 105.393 144.271 104.021 145.763 104.021C146.742 104.021 147.359 104.618 147.568 105.463H149.084C148.85 103.852 147.583 102.679 145.763 102.679C143.396 102.679 141.92 104.712 141.92 108.252C141.915 112.001 143.824 113.124 145.634 113.139ZM145.629 111.847C144.445 111.847 143.58 110.852 143.58 109.709C143.585 108.57 144.49 107.576 145.664 107.576C146.827 107.576 147.682 108.516 147.677 109.694C147.682 110.897 146.792 111.847 145.629 111.847Z" fill="#9C9C9E"/>
<rect x="41" y="60" width="35" height="28" rx="4" fill="#434344"/>
<path d="M63.6337 81.1392C65.7615 81.1591 67.1735 79.6278 67.1685 77.674C67.1735 75.7251 65.7566 74.3281 63.9917 74.3281C62.9178 74.3281 61.9881 74.8452 61.4661 75.7053H61.3915C61.3965 73.3935 62.2715 72.0213 63.763 72.0213C64.7424 72.0213 65.3588 72.6179 65.5676 73.4631H67.084C66.8503 71.8523 65.5826 70.679 63.763 70.679C61.3965 70.679 59.9199 72.7124 59.9199 76.2521C59.915 80.0007 61.824 81.1243 63.6337 81.1392ZM63.6287 79.8466C62.4455 79.8466 61.5804 78.8523 61.5804 77.7088C61.5854 76.5703 62.4902 75.576 63.6635 75.576C64.8269 75.576 65.682 76.5156 65.677 77.6939C65.682 78.897 64.7921 79.8466 63.6287 79.8466Z" fill="#9C9C9E"/>
<rect x="41" y="92" width="35" height="28" rx="4" fill="#434344"/>
<path d="M57.065 102.818H55.5685L53.0281 104.479V105.95L55.4641 104.359H55.5238V113H57.065V102.818ZM59.6055 111.011H64.4329V113H65.8995V111.011H67.2468V109.709H65.8995V102.818H64.0053L59.6055 109.768V111.011ZM64.4428 109.709H61.2163V109.629L64.3633 104.648H64.4428V109.709Z" fill="#9C9C9E"/>
<rect x="205" y="28" width="35" height="28" rx="4" fill="#434344"/>
<path d="M227.501 49.1392C229.579 49.1392 231.105 47.8963 231.1 46.206C231.105 44.9183 230.325 43.9936 228.972 43.7848V43.7053C230.036 43.4318 230.727 42.5966 230.722 41.4531C230.727 39.9567 229.499 38.679 227.54 38.679C225.671 38.679 224.17 39.8075 224.12 41.4631H225.607C225.641 40.5284 226.521 39.9616 227.521 39.9616C228.56 39.9616 229.241 40.593 229.236 41.5327C229.241 42.517 228.45 43.1634 227.322 43.1634H226.462V44.4162H227.322C228.734 44.4162 229.549 45.1321 229.549 46.1562C229.549 47.1456 228.689 47.8168 227.491 47.8168C226.387 47.8168 225.527 47.25 225.467 46.3452H223.906C223.971 48.0057 225.442 49.1392 227.501 49.1392Z" fill="#9C9C9E"/>
<rect x="205" y="60" width="35" height="28" rx="4" fill="#434344"/>
<path d="M223.608 70.8182H222.112L219.571 72.4787V73.9503L222.007 72.3594H222.067V81H223.608V70.8182ZM230.225 70.8182H228.729L226.188 72.4787V73.9503L228.624 72.3594H228.684V81H230.225V70.8182Z" fill="#9C9C9E"/>
<rect x="205" y="92" width="35" height="28" rx="4" fill="#434344"/>
<path d="M221.379 102.818H219.883L217.343 104.479V105.95L219.779 104.359H219.838V113H221.379V102.818ZM227.574 113.139C229.692 113.139 231.188 111.936 231.198 110.286C231.188 109.003 230.289 107.924 229.15 107.72V107.661C230.139 107.422 230.811 106.492 230.82 105.393C230.811 103.837 229.438 102.679 227.574 102.679C225.69 102.679 224.318 103.837 224.328 105.393C224.318 106.487 224.989 107.422 225.998 107.661V107.72C224.84 107.924 223.94 109.003 223.95 110.286C223.94 111.936 225.436 113.139 227.574 113.139ZM227.574 111.881C226.301 111.881 225.496 111.205 225.506 110.186C225.496 109.127 226.371 108.371 227.574 108.371C228.757 108.371 229.632 109.127 229.642 110.186C229.632 111.205 228.832 111.881 227.574 111.881ZM227.574 107.143C226.545 107.143 225.814 106.492 225.824 105.523C225.814 104.568 226.52 103.937 227.574 103.937C228.608 103.937 229.314 104.568 229.324 105.523C229.314 106.492 228.588 107.143 227.574 107.143Z" fill="#9C9C9E"/>
<rect x="164" y="28" width="35" height="28" rx="4" fill="#434344"/>
<path d="M183.393 49H190.095V47.6825H185.511V47.608L187.535 45.4901C189.399 43.6058 189.931 42.706 189.931 41.5675C189.931 39.9318 188.599 38.679 186.68 38.679C184.776 38.679 183.384 39.9119 183.384 41.7713H184.85C184.845 40.6776 185.551 39.9616 186.65 39.9616C187.684 39.9616 188.469 40.598 188.469 41.6122C188.469 42.5121 187.933 43.1584 186.839 44.3168L183.393 47.8864V49Z" fill="#9C9C9E"/>
<rect x="164" y="60" width="35" height="28" rx="4" fill="#434344"/>
<path d="M186.465 70.679C184.327 70.6591 182.93 72.1953 182.93 74.1243C182.935 76.0682 184.342 77.4702 186.107 77.4702C187.186 77.4702 188.11 76.9432 188.632 76.0881H188.712C188.707 78.4297 187.827 79.7969 186.335 79.7969C185.361 79.7969 184.735 79.2003 184.536 78.3303H183.019C183.243 79.9759 184.516 81.1392 186.335 81.1392C188.702 81.1392 190.183 79.1058 190.183 75.5412C190.178 71.8224 188.279 70.6939 186.465 70.679ZM186.47 71.9716C187.648 71.9716 188.518 72.9709 188.518 74.0895C188.523 75.223 187.603 76.2173 186.44 76.2173C185.271 76.2173 184.426 75.2827 184.421 74.1044C184.421 72.9212 185.301 71.9716 186.47 71.9716Z" fill="#9C9C9E"/>
<rect x="164" y="92" width="35" height="28" rx="4" fill="#434344"/>
<path d="M181.118 102.818H179.621L177.081 104.479V105.95L179.517 104.359H179.577V113H181.118V102.818ZM184.215 113H185.821L190.251 104.18V102.818H183.519V104.136H188.66V104.21L184.215 113Z" fill="#9C9C9E"/>
<rect x="82" y="60" width="35" height="28" rx="4" fill="#434344"/>
<path d="M102.215 81H103.821L108.251 72.1804V70.8182H101.519V72.1357H106.66V72.2102L102.215 81Z" fill="#9C9C9E"/>
<rect x="82" y="92" width="35" height="28" rx="4" fill="#434344"/>
<path d="M98.5435 102.818H97.0471L94.5066 104.479V105.95L96.9426 104.359H97.0023V113H98.5435V102.818ZM104.659 113.139C106.707 113.139 108.169 111.692 108.164 109.709C108.169 107.74 106.796 106.308 104.942 106.308C104.186 106.308 103.485 106.597 103.088 106.984H103.028L103.351 104.136H107.671V102.818H102.073L101.502 107.949L102.909 108.158C103.291 107.815 103.977 107.581 104.594 107.581C105.802 107.591 106.677 108.496 106.677 109.739C106.677 110.962 105.827 111.847 104.659 111.847C103.674 111.847 102.894 111.22 102.814 110.345H101.323C101.382 111.966 102.789 113.139 104.659 113.139Z" fill="#9C9C9E"/>
<rect x="246" y="28" width="35" height="28" rx="4" fill="#434344"/>
<path d="M264.605 47.0114H269.433V49H270.9V47.0114H272.247V45.7088H270.9V38.8182H269.005L264.605 45.7685V47.0114ZM269.443 45.7088H266.216V45.6293L269.363 40.6477H269.443V45.7088Z" fill="#9C9C9E"/>
<rect x="246" y="60" width="35" height="28" rx="4" fill="#434344"/>
<path d="M262.639 70.8182H261.143L258.602 72.4787V73.9503L261.038 72.3594H261.098V81H262.639V70.8182ZM265.393 81H272.095V79.6825H267.511V79.608L269.535 77.4901C271.399 75.6058 271.931 74.706 271.931 73.5675C271.931 71.9318 270.599 70.679 268.68 70.679C266.776 70.679 265.384 71.9119 265.384 73.7713H266.85C266.845 72.6776 267.551 71.9616 268.65 71.9616C269.684 71.9616 270.469 72.598 270.469 73.6122C270.469 74.5121 269.933 75.1584 268.839 76.3168L265.393 79.8864V81Z" fill="#9C9C9E"/>
<rect x="246" y="92" width="35" height="28" rx="4" fill="#434344"/>
<path d="M262.325 102.818H260.828L258.288 104.479V105.95L260.724 104.359H260.784V113H262.325V102.818ZM268.465 102.679C266.327 102.659 264.93 104.195 264.93 106.124C264.935 108.068 266.342 109.47 268.107 109.47C269.186 109.47 270.11 108.943 270.632 108.088H270.712C270.707 110.43 269.827 111.797 268.335 111.797C267.361 111.797 266.735 111.2 266.536 110.33H265.019C265.243 111.976 266.516 113.139 268.335 113.139C270.702 113.139 272.183 111.106 272.183 107.541C272.178 103.822 270.279 102.694 268.465 102.679ZM268.47 103.972C269.648 103.972 270.518 104.971 270.518 106.089C270.523 107.223 269.603 108.217 268.44 108.217C267.271 108.217 266.426 107.283 266.421 106.104C266.421 104.921 267.301 103.972 268.47 103.972Z" fill="#9C9C9E"/>
<rect y="60" width="35" height="28" rx="4" fill="#434344"/>
<path d="M22.6586 81.1392C24.7069 81.1392 26.1685 79.6925 26.1635 77.7088C26.1685 75.7401 24.7963 74.3082 22.9419 74.3082C22.1863 74.3082 21.4853 74.5966 21.0875 74.9844H21.0279L21.351 72.1357H25.6713V70.8182H20.0733L19.5016 75.9489L20.9086 76.1577C21.2914 75.8146 21.9775 75.581 22.5939 75.581C23.802 75.5909 24.677 76.4957 24.677 77.7386C24.677 78.9616 23.8269 79.8466 22.6586 79.8466C21.6742 79.8466 20.8936 79.2202 20.8141 78.3452H19.3226C19.3823 79.9659 20.7892 81.1392 22.6586 81.1392Z" fill="#9C9C9E"/>
<rect y="92" width="35" height="28" rx="4" fill="#434344"/>
<path d="M16.2017 102.818H14.7053L12.1648 104.479V105.95L14.6009 104.359H14.6605V113H16.2017V102.818ZM22.5007 113.139C24.5788 113.139 26.1051 111.896 26.1001 110.206C26.1051 108.918 25.3246 107.994 23.9723 107.785V107.705C25.0362 107.432 25.7273 106.597 25.7223 105.453C25.7273 103.957 24.4993 102.679 22.5405 102.679C20.6712 102.679 19.1697 103.808 19.12 105.463H20.6065C20.6413 104.528 21.5213 103.962 22.5206 103.962C23.5597 103.962 24.2408 104.593 24.2358 105.533C24.2408 106.517 23.4503 107.163 22.3217 107.163H21.4616V108.416H22.3217C23.7337 108.416 24.549 109.132 24.549 110.156C24.549 111.146 23.6889 111.817 22.4908 111.817C21.3871 111.817 20.527 111.25 20.4673 110.345H18.9062C18.9709 112.006 20.4425 113.139 22.5007 113.139Z" fill="#9C9C9E"/>
<rect y="124" width="35" height="28" rx="4" fill="#434344"/>
<path d="M10.3564 145H17.0581V143.683H12.4743V143.608L14.4977 141.49C16.362 139.606 16.894 138.706 16.894 137.567C16.894 135.932 15.5616 134.679 13.6426 134.679C11.7385 134.679 10.3464 135.912 10.3464 137.771H11.813C11.8081 136.678 12.514 135.962 13.6127 135.962C14.6468 135.962 15.4324 136.598 15.4324 137.612C15.4324 138.512 14.8954 139.158 13.8017 140.317L10.3564 143.886V145ZM22.487 145.169C24.8386 145.169 26.2157 143.25 26.2157 139.914C26.2157 136.603 24.8187 134.679 22.487 134.679C20.1504 134.679 18.7583 136.598 18.7534 139.914C18.7534 143.245 20.1305 145.164 22.487 145.169ZM22.487 143.842C21.1099 143.842 20.2797 142.46 20.2797 139.914C20.2846 137.379 21.1149 135.982 22.487 135.982C23.8542 135.982 24.6895 137.379 24.6895 139.914C24.6895 142.46 23.8592 143.842 22.487 143.842Z" fill="#9C9C9E"/>
<rect x="41" y="124" width="35" height="28" rx="4" fill="#434344"/>
<path d="M53.7763 145H60.478V143.683H55.8942V143.608L57.9176 141.49C59.782 139.606 60.3139 138.706 60.3139 137.567C60.3139 135.932 58.9815 134.679 57.0625 134.679C55.1584 134.679 53.7663 135.912 53.7663 137.771H55.233C55.228 136.678 55.9339 135.962 57.0327 135.962C58.0668 135.962 58.8523 136.598 58.8523 137.612C58.8523 138.512 58.3153 139.158 57.2216 140.317L53.7763 143.886V145ZM66.2251 134.818H64.7287L62.1882 136.479V137.95L64.6243 136.359H64.6839V145H66.2251V134.818Z" fill="#9C9C9E"/>
<rect x="82" y="124" width="35" height="28" rx="4" fill="#5F45D5"/>
<path d="M92.8075 145H99.5092V143.683H94.9254V143.608L96.9489 141.49C98.8132 139.606 99.3452 138.706 99.3452 137.567C99.3452 135.932 98.0128 134.679 96.0938 134.679C94.1896 134.679 92.7976 135.912 92.7976 137.771H94.2642C94.2592 136.678 94.9652 135.962 96.0639 135.962C97.098 135.962 97.8835 136.598 97.8835 137.612C97.8835 138.512 97.3466 139.158 96.2528 140.317L92.8075 143.886V145ZM101.393 145H108.095V143.683H103.511V143.608L105.535 141.49C107.399 139.606 107.931 138.706 107.931 137.567C107.931 135.932 106.599 134.679 104.68 134.679C102.776 134.679 101.384 135.912 101.384 137.771H102.85C102.845 136.678 103.551 135.962 104.65 135.962C105.684 135.962 106.469 136.598 106.469 137.612C106.469 138.512 105.933 139.158 104.839 140.317L101.393 143.886V145Z" fill="white"/>
<rect x="123" y="124" width="35" height="28" rx="4" fill="#434344"/>
<path d="M133.37 145H140.072V143.683H135.488V143.608L137.511 141.49C139.376 139.606 139.908 138.706 139.908 137.567C139.908 135.932 138.575 134.679 136.656 134.679C134.752 134.679 133.36 135.912 133.36 137.771H134.827C134.822 136.678 135.528 135.962 136.626 135.962C137.661 135.962 138.446 136.598 138.446 137.612C138.446 138.512 137.909 139.158 136.815 140.317L133.37 143.886V145ZM145.501 145.139C147.579 145.139 149.105 143.896 149.1 142.206C149.105 140.918 148.325 139.994 146.972 139.785V139.705C148.036 139.432 148.727 138.597 148.722 137.453C148.727 135.957 147.499 134.679 145.54 134.679C143.671 134.679 142.17 135.808 142.12 137.463H143.607C143.641 136.528 144.521 135.962 145.521 135.962C146.56 135.962 147.241 136.593 147.236 137.533C147.241 138.517 146.45 139.163 145.322 139.163H144.462V140.416H145.322C146.734 140.416 147.549 141.132 147.549 142.156C147.549 143.146 146.689 143.817 145.491 143.817C144.387 143.817 143.527 143.25 143.467 142.345H141.906C141.971 144.006 143.442 145.139 145.501 145.139Z" fill="#9C9C9E"/>
<rect x="164" y="124" width="35" height="28" rx="4" fill="#434344"/>
<path d="M174.452 145H181.154V143.683H176.57V143.608L178.593 141.49C180.458 139.606 180.99 138.706 180.99 137.567C180.99 135.932 179.657 134.679 177.738 134.679C175.834 134.679 174.442 135.912 174.442 137.771H175.909C175.904 136.678 176.61 135.962 177.708 135.962C178.743 135.962 179.528 136.598 179.528 137.612C179.528 138.512 178.991 139.158 177.897 140.317L174.452 143.886V145ZM182.605 143.011H187.433V145H188.9V143.011H190.247V141.709H188.9V134.818H187.005L182.605 141.768V143.011ZM187.443 141.709H184.216V141.629L187.363 136.648H187.443V141.709Z" fill="#9C9C9E"/>
<rect x="205" y="124" width="35" height="28" rx="4" fill="#434344"/>
<path d="M215.712 145H222.414V143.683H217.83V143.608L219.853 141.49C221.718 139.606 222.249 138.706 222.249 137.567C222.249 135.932 220.917 134.679 218.998 134.679C217.094 134.679 215.702 135.912 215.702 137.771H217.169C217.164 136.678 217.869 135.962 218.968 135.962C220.002 135.962 220.788 136.598 220.788 137.612C220.788 138.512 220.251 139.158 219.157 140.317L215.712 143.886V145ZM227.659 145.139C229.707 145.139 231.169 143.692 231.164 141.709C231.169 139.74 229.796 138.308 227.942 138.308C227.186 138.308 226.485 138.597 226.088 138.984H226.028L226.351 136.136H230.671V134.818H225.073L224.502 139.949L225.909 140.158C226.291 139.815 226.977 139.581 227.594 139.581C228.802 139.591 229.677 140.496 229.677 141.739C229.677 142.962 228.827 143.847 227.659 143.847C226.674 143.847 225.894 143.22 225.814 142.345H224.323C224.382 143.966 225.789 145.139 227.659 145.139Z" fill="#9C9C9E"/>
<rect x="246" y="124" width="35" height="28" rx="4" fill="#434344"/>
<path d="M256.493 145H263.195V143.683H258.611V143.608L260.634 141.49C262.499 139.606 263.031 138.706 263.031 137.567C263.031 135.932 261.698 134.679 259.779 134.679C257.875 134.679 256.483 135.912 256.483 137.771H257.95C257.945 136.678 258.651 135.962 259.749 135.962C260.784 135.962 261.569 136.598 261.569 137.612C261.569 138.512 261.032 139.158 259.938 140.317L256.493 143.886V145ZM268.634 145.139C270.762 145.159 272.173 143.628 272.169 141.674C272.173 139.725 270.757 138.328 268.992 138.328C267.918 138.328 266.988 138.845 266.466 139.705H266.392C266.396 137.393 267.271 136.021 268.763 136.021C269.742 136.021 270.359 136.618 270.568 137.463H272.084C271.85 135.852 270.583 134.679 268.763 134.679C266.396 134.679 264.92 136.712 264.92 140.252C264.915 144.001 266.824 145.124 268.634 145.139ZM268.629 143.847C267.445 143.847 266.58 142.852 266.58 141.709C266.585 140.57 267.49 139.576 268.664 139.576C269.827 139.576 270.682 140.516 270.677 141.694C270.682 142.897 269.792 143.847 268.629 143.847Z" fill="#9C9C9E"/>
<rect y="156" width="35" height="28" rx="4" fill="#434344"/>
<path d="M11.286 177H17.9877V175.683H13.4039V175.608L15.4274 173.49C17.2917 171.606 17.8237 170.706 17.8237 169.567C17.8237 167.932 16.4913 166.679 14.5723 166.679C12.6681 166.679 11.2761 167.912 11.2761 169.771H12.7427C12.7377 168.678 13.4437 167.962 14.5424 167.962C15.5765 167.962 16.362 168.598 16.362 169.612C16.362 170.512 15.8251 171.158 14.7314 172.317L11.286 175.886V177ZM20.215 177H21.8208L26.2505 168.18V166.818H19.519V168.136H24.6596V168.21L20.215 177Z" fill="#9C9C9E"/>
<rect x="41" y="156" width="35" height="28" rx="4" fill="#434344"/>
<path d="M51.5478 177H58.2495V175.683H53.6657V175.608L55.6891 173.49C57.5534 171.606 58.0854 170.706 58.0854 169.567C58.0854 167.932 56.753 166.679 54.834 166.679C52.9299 166.679 51.5378 167.912 51.5378 169.771H53.0044C52.9995 168.678 53.7054 167.962 54.8042 167.962C55.8382 167.962 56.6238 168.598 56.6238 169.612C56.6238 170.512 56.0868 171.158 54.9931 172.317L51.5478 175.886V177ZM63.574 177.139C65.6919 177.139 67.1884 175.936 67.1983 174.286C67.1884 173.003 66.2885 171.924 65.15 171.72V171.661C66.1394 171.422 66.8105 170.492 66.8205 169.393C66.8105 167.837 65.4384 166.679 63.574 166.679C61.6898 166.679 60.3176 167.837 60.3276 169.393C60.3176 170.487 60.9888 171.422 61.998 171.661V171.72C60.8397 171.924 59.9398 173.003 59.9498 174.286C59.9398 175.936 61.4363 177.139 63.574 177.139ZM63.574 175.881C62.3013 175.881 61.4959 175.205 61.5059 174.186C61.4959 173.127 62.3709 172.371 63.574 172.371C64.7573 172.371 65.6323 173.127 65.6422 174.186C65.6323 175.205 64.8319 175.881 63.574 175.881ZM63.574 171.143C62.5449 171.143 61.8141 170.492 61.824 169.523C61.8141 168.568 62.5201 167.937 63.574 167.937C64.6081 167.937 65.3141 168.568 65.324 169.523C65.3141 170.492 64.5882 171.143 63.574 171.143Z" fill="#9C9C9E"/>
<rect x="82" y="156" width="35" height="28" rx="4" fill="#434344"/>
<path d="M92.4931 177H99.1948V175.683H94.611V175.608L96.6344 173.49C98.4988 171.606 99.0307 170.706 99.0307 169.567C99.0307 167.932 97.6983 166.679 95.7793 166.679C93.8752 166.679 92.4831 167.912 92.4831 169.771H93.9498C93.9448 168.678 94.6507 167.962 95.7495 167.962C96.7836 167.962 97.5691 168.598 97.5691 169.612C97.5691 170.512 97.0321 171.158 95.9384 172.317L92.4931 175.886V177ZM104.465 166.679C102.327 166.659 100.93 168.195 100.93 170.124C100.935 172.068 102.342 173.47 104.107 173.47C105.186 173.47 106.11 172.943 106.632 172.088H106.712C106.707 174.43 105.827 175.797 104.335 175.797C103.361 175.797 102.735 175.2 102.536 174.33H101.019C101.243 175.976 102.516 177.139 104.335 177.139C106.702 177.139 108.183 175.106 108.183 171.541C108.178 167.822 106.279 166.694 104.465 166.679ZM104.47 167.972C105.648 167.972 106.518 168.971 106.518 170.089C106.523 171.223 105.603 172.217 104.44 172.217C103.271 172.217 102.426 171.283 102.421 170.104C102.421 168.921 103.301 167.972 104.47 167.972Z" fill="#9C9C9E"/>
<rect x="123" y="156" width="35" height="28" rx="4" fill="#434344"/>
<path d="M136.464 177.139C138.542 177.139 140.068 175.896 140.063 174.206C140.068 172.918 139.287 171.994 137.935 171.785V171.705C138.999 171.432 139.69 170.597 139.685 169.453C139.69 167.957 138.462 166.679 136.503 166.679C134.634 166.679 133.133 167.808 133.083 169.463H134.569C134.604 168.528 135.484 167.962 136.483 167.962C137.523 167.962 138.204 168.593 138.199 169.533C138.204 170.517 137.413 171.163 136.285 171.163H135.425V172.416H136.285C137.697 172.416 138.512 173.132 138.512 174.156C138.512 175.146 137.652 175.817 136.454 175.817C135.35 175.817 134.49 175.25 134.43 174.345H132.869C132.934 176.006 134.405 177.139 136.464 177.139ZM145.487 177.169C147.839 177.169 149.216 175.25 149.216 171.914C149.216 168.603 147.819 166.679 145.487 166.679C143.15 166.679 141.758 168.598 141.753 171.914C141.753 175.245 143.131 177.164 145.487 177.169ZM145.487 175.842C144.11 175.842 143.28 174.46 143.28 171.914C143.285 169.379 144.115 167.982 145.487 167.982C146.854 167.982 147.689 169.379 147.689 171.914C147.689 174.46 146.859 175.842 145.487 175.842Z" fill="#9C9C9E"/>
<rect x="164" y="156" width="35" height="28" rx="4" fill="#434344"/>
<path d="M179.884 177.139C181.962 177.139 183.488 175.896 183.483 174.206C183.488 172.918 182.707 171.994 181.355 171.785V171.705C182.419 171.432 183.11 170.597 183.105 169.453C183.11 167.957 181.882 166.679 179.923 166.679C178.054 166.679 176.553 167.808 176.503 169.463H177.989C178.024 168.528 178.904 167.962 179.903 167.962C180.942 167.962 181.624 168.593 181.619 169.533C181.624 170.517 180.833 171.163 179.705 171.163H178.844V172.416H179.705C181.116 172.416 181.932 173.132 181.932 174.156C181.932 175.146 181.072 175.817 179.874 175.817C178.77 175.817 177.91 175.25 177.85 174.345H176.289C176.354 176.006 177.825 177.139 179.884 177.139ZM189.225 166.818H187.729L185.188 168.479V169.95L187.624 168.359H187.684V177H189.225V166.818Z" fill="#9C9C9E"/>
<rect x="205" y="156" width="35" height="28" rx="4" fill="#27292A"/>
<path d="M230.225 166.818H228.729L226.188 168.479V169.95L228.624 168.359H228.684V177H230.225V166.818Z" fill="#616161"/>
<rect x="41" y="28" width="35" height="28" rx="4" fill="#27292A"/>
<path d="M51.4931 49H58.1948V47.6825H53.611V47.608L55.6344 45.4901C57.4988 43.6058 58.0307 42.706 58.0307 41.5675C58.0307 39.9318 56.6983 38.679 54.7793 38.679C52.8752 38.679 51.4831 39.9119 51.4831 41.7713H52.9498C52.9448 40.6776 53.6507 39.9616 54.7495 39.9616C55.7836 39.9616 56.5691 40.598 56.5691 41.6122C56.5691 42.5121 56.0321 43.1584 54.9384 44.3168L51.4931 47.8864V49ZM63.4647 38.679C61.3269 38.6591 59.9299 40.1953 59.9299 42.1243C59.9348 44.0682 61.3418 45.4702 63.1067 45.4702C64.1855 45.4702 65.1103 44.9432 65.6323 44.0881H65.7118C65.7069 46.4297 64.8269 47.7969 63.3354 47.7969C62.361 47.7969 61.7346 47.2003 61.5357 46.3303H60.0194C60.2431 47.9759 61.5158 49.1392 63.3354 49.1392C65.7019 49.1392 67.1834 47.1058 67.1834 43.5412C67.1784 39.8224 65.2793 38.6939 63.4647 38.679ZM63.4696 39.9716C64.6479 39.9716 65.5179 40.9709 65.5179 42.0895C65.5229 43.223 64.6032 44.2173 63.4398 44.2173C62.2715 44.2173 61.4263 43.2827 61.4213 42.1044C61.4213 40.9212 62.3013 39.9716 63.4696 39.9716Z" fill="#616161"/>
<rect y="28" width="35" height="28" rx="4" fill="#27292A"/>
<path d="M10.5478 49H17.2495V47.6825H12.6657V47.608L14.6891 45.4901C16.5534 43.6058 17.0854 42.706 17.0854 41.5675C17.0854 39.9318 15.753 38.679 13.834 38.679C11.9299 38.679 10.5378 39.9119 10.5378 41.7713H12.0044C11.9995 40.6776 12.7054 39.9616 13.8042 39.9616C14.8382 39.9616 15.6238 40.598 15.6238 41.6122C15.6238 42.5121 15.0868 43.1584 13.9931 44.3168L10.5478 47.8864V49ZM22.574 49.1392C24.6919 49.1392 26.1884 47.9361 26.1983 46.2855C26.1884 45.0028 25.2885 43.924 24.15 43.7202V43.6605C25.1394 43.4219 25.8105 42.4922 25.8205 41.3935C25.8105 39.8374 24.4384 38.679 22.574 38.679C20.6898 38.679 19.3176 39.8374 19.3276 41.3935C19.3176 42.4872 19.9888 43.4219 20.998 43.6605V43.7202C19.8397 43.924 18.9398 45.0028 18.9498 46.2855C18.9398 47.9361 20.4363 49.1392 22.574 49.1392ZM22.574 47.8814C21.3013 47.8814 20.4959 47.2053 20.5059 46.1861C20.4959 45.1271 21.3709 44.3714 22.574 44.3714C23.7573 44.3714 24.6323 45.1271 24.6422 46.1861C24.6323 47.2053 23.8319 47.8814 22.574 47.8814ZM22.574 43.1435C21.5449 43.1435 20.8141 42.4922 20.824 41.5227C20.8141 40.5682 21.5201 39.9368 22.574 39.9368C23.6081 39.9368 24.3141 40.5682 24.324 41.5227C24.3141 42.4922 23.5882 43.1435 22.574 43.1435Z" fill="#616161"/>
<rect x="246" y="156" width="35" height="28" rx="4" fill="#27292A"/>
<path d="M265.393 177H272.095V175.683H267.511V175.608L269.535 173.49C271.399 171.606 271.931 170.706 271.931 169.567C271.931 167.932 270.599 166.679 268.68 166.679C266.776 166.679 265.384 167.912 265.384 169.771H266.85C266.845 168.678 267.551 167.962 268.65 167.962C269.684 167.962 270.469 168.598 270.469 169.612C270.469 170.512 269.933 171.158 268.839 172.317L265.393 175.886V177Z" fill="#616161"/>
<rect x="82" y="28" width="35" height="28" rx="4" fill="#27292A"/>
<path d="M95.4636 49.1392C97.5417 49.1392 99.068 47.8963 99.063 46.206C99.068 44.9183 98.2875 43.9936 96.9352 43.7848V43.7053C97.9991 43.4318 98.6902 42.5966 98.6852 41.4531C98.6902 39.9567 97.4622 38.679 95.5034 38.679C93.6341 38.679 92.1326 39.8075 92.0829 41.4631H93.5694C93.6042 40.5284 94.4842 39.9616 95.4835 39.9616C96.5225 39.9616 97.2037 40.593 97.1987 41.5327C97.2037 42.517 96.4132 43.1634 95.2846 43.1634H94.4245V44.4162H95.2846C96.6966 44.4162 97.5119 45.1321 97.5119 46.1562C97.5119 47.1456 96.6518 47.8168 95.4537 47.8168C94.35 47.8168 93.4899 47.25 93.4302 46.3452H91.8691C91.9338 48.0057 93.4054 49.1392 95.4636 49.1392ZM104.487 49.169C106.839 49.169 108.216 47.25 108.216 43.9141C108.216 40.603 106.819 38.679 104.487 38.679C102.15 38.679 100.758 40.598 100.753 43.9141C100.753 47.245 102.131 49.1641 104.487 49.169ZM104.487 47.8416C103.11 47.8416 102.28 46.4595 102.28 43.9141C102.285 41.3786 103.115 39.9815 104.487 39.9815C105.854 39.9815 106.689 41.3786 106.689 43.9141C106.689 46.4595 105.859 47.8416 104.487 47.8416Z" fill="#616161"/>
<path d="M8.11861 5.81818V16H9.58026V8.62713H9.67472L12.6776 15.9851H13.8906L16.8935 8.6321H16.9879V16H18.4496V5.81818H16.5852L13.3438 13.733H13.2244L9.98295 5.81818H8.11861ZM23.7804 16.1541C25.9331 16.1541 27.34 14.5781 27.34 12.2166C27.34 9.8402 25.9331 8.2642 23.7804 8.2642C21.6277 8.2642 20.2207 9.8402 20.2207 12.2166C20.2207 14.5781 21.6277 16.1541 23.7804 16.1541ZM23.7853 14.9062C22.3784 14.9062 21.7221 13.6783 21.7221 12.2116C21.7221 10.75 22.3784 9.5071 23.7853 9.5071C25.1824 9.5071 25.8386 10.75 25.8386 12.2116C25.8386 13.6783 25.1824 14.9062 23.7853 14.9062Z" fill="#616161"/>
<path d="M90.037 16H91.5882L93.7309 8.37358H93.8105L95.9532 16H97.4994L100.328 5.81818H98.7075L96.7288 13.7081H96.6343L94.5711 5.81818H92.9703L90.907 13.7031H90.8126L88.8289 5.81818H87.2132L90.037 16ZM104.149 16.1541C105.814 16.1541 106.993 15.3338 107.331 14.0909L105.924 13.8374C105.655 14.5582 105.009 14.9261 104.164 14.9261C102.891 14.9261 102.036 14.1009 101.996 12.6293H107.425V12.1023C107.425 9.34304 105.775 8.2642 104.044 8.2642C101.917 8.2642 100.515 9.88494 100.515 12.2315C100.515 14.603 101.897 16.1541 104.149 16.1541ZM102.001 11.5156C102.061 10.4318 102.846 9.49219 104.054 9.49219C105.208 9.49219 105.964 10.3473 105.968 11.5156H102.001Z" fill="#616161"/>
<path d="M171.878 16H173.415V11.5604H177.74V10.2429H173.415V7.14062H178.192V5.81818H171.878V16ZM179.866 16H181.353V11.3366C181.353 10.3374 182.124 9.61648 183.178 9.61648C183.486 9.61648 183.834 9.67116 183.953 9.70597V8.28409C183.804 8.2642 183.511 8.24929 183.322 8.24929C182.427 8.24929 181.661 8.75639 181.383 9.5767H181.303V8.36364H179.866V16Z" fill="#616161"/>
<path d="M255.504 8.4929H256.985C256.941 6.86222 255.499 5.67898 253.431 5.67898C251.387 5.67898 249.821 6.8473 249.821 8.60227C249.821 10.0192 250.836 10.8494 252.471 11.2919L253.674 11.62C254.763 11.9084 255.603 12.2663 255.603 13.1712C255.603 14.1655 254.654 14.8217 253.346 14.8217C252.163 14.8217 251.179 14.2947 251.089 13.1861H249.548C249.647 15.0305 251.074 16.169 253.356 16.169C255.748 16.169 257.125 14.9112 257.125 13.1861C257.125 11.3516 255.489 10.6406 254.196 10.3224L253.202 10.0639C252.407 9.86009 251.348 9.48722 251.353 8.51278C251.353 7.64773 252.143 7.00639 253.396 7.00639C254.564 7.00639 255.395 7.55327 255.504 8.4929ZM263.678 12.8331C263.683 14.1307 262.719 14.7472 261.884 14.7472C260.964 14.7472 260.328 14.081 260.328 13.0419V8.36364H258.841V13.2209C258.841 15.1151 259.88 16.0994 261.347 16.0994C262.495 16.0994 263.276 15.4929 263.629 14.6776H263.708V16H265.17V8.36364H263.678V12.8331Z" fill="#616161"/>
<path d="M49.9134 7.14062H53.0852V16H54.6165V7.14062H57.7933V5.81818H49.9134V7.14062ZM63.2136 12.8331C63.2186 14.1307 62.2541 14.7472 61.4189 14.7472C60.4991 14.7472 59.8627 14.081 59.8627 13.0419V8.36364H58.3762V13.2209C58.3762 15.1151 59.4153 16.0994 60.8819 16.0994C62.0304 16.0994 62.8109 15.4929 63.1639 14.6776H63.2434V16H64.7051V8.36364H63.2136V12.8331Z" fill="#616161"/>
<path d="M129.346 7.14062H132.518V16H134.049V7.14062H137.226V5.81818H129.346V7.14062ZM140.334 11.4659C140.334 10.2479 141.105 9.55185 142.164 9.55185C143.188 9.55185 143.8 10.2031 143.8 11.3217V16H145.286V11.1428C145.286 9.23864 144.242 8.2642 142.671 8.2642C141.483 8.2642 140.767 8.78125 140.409 9.60653H140.315V5.81818H138.848V16H140.334V11.4659Z" fill="#616161"/>
<path d="M215.682 8.4929H217.163C217.118 6.86222 215.677 5.67898 213.608 5.67898C211.565 5.67898 209.999 6.8473 209.999 8.60227C209.999 10.0192 211.013 10.8494 212.649 11.2919L213.852 11.62C214.941 11.9084 215.781 12.2663 215.781 13.1712C215.781 14.1655 214.831 14.8217 213.524 14.8217C212.341 14.8217 211.356 14.2947 211.267 13.1861H209.726C209.825 15.0305 211.252 16.169 213.534 16.169C215.925 16.169 217.302 14.9112 217.302 13.1861C217.302 11.3516 215.667 10.6406 214.374 10.3224L213.38 10.0639C212.584 9.86009 211.525 9.48722 211.53 8.51278C211.53 7.64773 212.321 7.00639 213.574 7.00639C214.742 7.00639 215.572 7.55327 215.682 8.4929ZM221.241 16.169C222.504 16.169 223.215 15.5277 223.498 14.956H223.558V16H225.01V10.929C225.01 8.70668 223.26 8.2642 222.047 8.2642C220.664 8.2642 219.392 8.82102 218.895 10.2131L220.292 10.5312C220.51 9.98935 221.067 9.46733 222.066 9.46733C223.026 9.46733 223.518 9.96946 223.518 10.8345V10.8693C223.518 11.4112 222.961 11.4013 221.589 11.5604C220.142 11.7294 218.661 12.1072 218.661 13.8423C218.661 15.3438 219.789 16.169 221.241 16.169ZM221.564 14.9759C220.724 14.9759 220.118 14.598 220.118 13.8622C220.118 13.0668 220.824 12.7834 221.684 12.669C222.166 12.6044 223.309 12.4751 223.523 12.2614V13.2457C223.523 14.1506 222.802 14.9759 221.564 14.9759Z" fill="#616161"/>
</svg>
