<svg width="280" height="224" viewBox="0 0 280 224" fill="none" xmlns="http://www.w3.org/2000/svg">
<rect x="8" y="40" width="128" height="88" rx="12" fill="#434344"/>
<path d="M27.071 116.193C29.1236 116.193 30.4759 114.938 30.7173 113.295H29.2926C29.027 114.31 28.1818 114.913 27.071 114.913C25.3807 114.913 24.294 113.513 24.294 111.364C24.294 109.263 25.4048 107.886 27.071 107.886C28.3267 107.886 29.0753 108.659 29.2926 109.504H30.7173C30.4759 107.766 29.0028 106.607 27.0469 106.607C24.5355 106.607 22.8693 108.587 22.8693 111.412C22.8693 114.189 24.4631 116.193 27.071 116.193ZM32.8001 116H34.2248V110.205C34.2248 108.846 35.2148 107.886 36.3256 107.886C37.4062 107.886 38.1609 108.593 38.1609 109.649V116H39.6097V109.963C39.6097 108.768 40.3583 107.886 41.6623 107.886C42.6765 107.886 43.5458 108.424 43.5458 109.794V116H44.9705V109.794C44.9705 107.615 43.7994 106.607 42.1452 106.607C40.8171 106.607 39.8452 107.216 39.3683 108.176H39.2717C38.8129 107.186 38.0039 106.607 36.7844 106.607C35.5771 106.607 34.6836 107.186 34.2972 108.176H34.1765V106.727H32.8001V116ZM51.0769 116.193C52.8638 116.193 53.4675 115.082 53.7814 114.575H53.9505V116H55.3269V103.636H53.9022V108.2H53.7814C53.4675 107.717 52.9121 106.607 51.101 106.607C48.7587 106.607 47.1408 108.466 47.1408 111.388C47.1408 114.334 48.7587 116.193 51.0769 116.193ZM51.2701 114.913C49.4831 114.913 48.5655 113.344 48.5655 111.364C48.5655 109.408 49.459 107.886 51.2701 107.886C53.0087 107.886 53.9263 109.287 53.9263 111.364C53.9263 113.464 52.9846 114.913 51.2701 114.913Z" fill="#9C9C9E"/>
<rect x="154" y="40" width="88" height="88" rx="12" fill="#434344"/>
<path d="M192.77 69.0909C192.77 59.6562 187.237 53.7741 179.608 53.7741C171.979 53.7741 166.446 59.6562 166.446 69.0909C166.446 78.5256 171.979 84.4077 179.608 84.4077C187.237 84.4077 192.77 78.5256 192.77 69.0909ZM189.276 69.0909C189.276 76.8366 185.024 81.0298 179.608 81.0298C174.192 81.0298 169.94 76.8366 169.94 69.0909C169.94 61.3452 174.192 57.152 179.608 57.152C185.024 57.152 189.276 61.3452 189.276 69.0909Z" fill="#9E9EA0"/>
<path d="M117.4 69.8H114.6V64.2H117.4C120.493 64.2 123 61.6926 123 58.6C123 55.5074 120.493 53 117.4 53C114.307 53 111.8 55.5074 111.8 58.6V61.4H106.2V58.6C106.2 55.5074 103.693 53 100.6 53C97.5074 53 95 55.5074 95 58.6C95 61.6926 97.5074 64.2 100.6 64.2H103.4V69.8H100.6C97.5074 69.8 95 72.3074 95 75.4C95 78.4926 97.5074 81 100.6 81C103.693 81 106.2 78.4926 106.2 75.4V72.6H111.8V75.393C111.8 75.3958 111.8 75.3979 111.8 75.4C111.8 78.4926 114.307 81 117.4 81C120.492 81 123 78.4926 123 75.4C123 72.3074 120.493 69.8007 117.4 69.8ZM117.4 55.8C118.946 55.8 120.2 57.0537 120.2 58.6C120.2 60.1463 118.946 61.4 117.4 61.4H114.6V58.6C114.6 57.0537 115.854 55.8 117.4 55.8ZM97.8 58.6C97.8 57.0537 99.0537 55.8 100.6 55.8C102.146 55.8 103.4 57.0537 103.4 58.6V61.4H100.6C99.0537 61.4 97.8 60.1459 97.8 58.6ZM100.6 78.2C99.0537 78.2 97.8 76.9463 97.8 75.4C97.8 73.8537 99.0537 72.6 100.6 72.6H103.4V75.4C103.4 76.9463 102.146 78.2 100.6 78.2ZM106.2 69.8V64.2H111.8V69.8H106.2ZM117.4 78.2C115.854 78.2 114.6 76.9463 114.6 75.4V72.6H117.4C118.946 72.6 120.2 73.8537 120.2 75.4C120.2 76.9463 118.946 78.2 117.4 78.2Z" fill="#9E9EA0"/>
</svg>
