<svg width="280" height="224" viewBox="0 0 280 224" fill="none" xmlns="http://www.w3.org/2000/svg">
<g opacity="0.3">
<path d="M35.2546 27.0909H32.9482V38H35.2546V27.0909ZM39.3788 33.2699C39.3841 32.2152 40.0127 31.5973 40.9289 31.5973C41.8398 31.5973 42.3884 32.1939 42.3831 33.1953V38H44.6523V32.7905C44.6523 30.8835 43.5336 29.7116 41.8291 29.7116C40.6146 29.7116 39.7357 30.3082 39.3682 31.2617H39.2723V29.8182H37.1096V38H39.3788V33.2699ZM50.7926 29.8182H49.2532V27.858H46.984V29.8182H45.8654V31.5227H46.984V35.7841C46.9734 37.3874 48.0653 38.1811 49.7113 38.1119C50.2972 38.0906 50.7127 37.9734 50.9418 37.8988L50.5849 36.2102C50.473 36.2315 50.2333 36.2848 50.0202 36.2848C49.5675 36.2848 49.2532 36.1143 49.2532 35.4858V31.5227H50.7926V29.8182ZM52.2708 38H54.54V33.3711C54.54 32.3643 55.275 31.6719 56.2765 31.6719C56.5907 31.6719 57.0222 31.7251 57.2353 31.7944V29.7809C57.0328 29.733 56.7505 29.701 56.5215 29.701C55.6053 29.701 54.8542 30.2337 54.5559 31.2457H54.4707V29.8182H52.2708V38ZM61.7243 38.1598C64.2066 38.1598 65.7513 36.4606 65.7513 33.9411C65.7513 31.4055 64.2066 29.7116 61.7243 29.7116C59.2421 29.7116 57.6974 31.4055 57.6974 33.9411C57.6974 36.4606 59.2421 38.1598 61.7243 38.1598ZM61.735 36.402C60.5898 36.402 60.0038 35.3526 60.0038 33.9251C60.0038 32.4975 60.5898 31.4428 61.735 31.4428C62.8589 31.4428 63.4449 32.4975 63.4449 33.9251C63.4449 35.3526 62.8589 36.402 61.735 36.402ZM70.2417 38.1332C71.5628 38.1332 72.2499 37.3714 72.5642 36.6896H72.6601V38H74.8973V27.0909H72.6334V31.1925H72.5642C72.2606 30.5266 71.6054 29.7116 70.2364 29.7116C68.4413 29.7116 66.9232 31.1072 66.9232 33.9197C66.9232 36.6577 68.3774 38.1332 70.2417 38.1332ZM70.9608 36.3274C69.8476 36.3274 69.2403 35.3366 69.2403 33.9091C69.2403 32.4922 69.8369 31.5174 70.9608 31.5174C72.0635 31.5174 72.6814 32.4496 72.6814 33.9091C72.6814 35.3686 72.0528 36.3274 70.9608 36.3274ZM82.0098 34.5163C82.0151 35.6136 81.264 36.1889 80.449 36.1889C79.5914 36.1889 79.0375 35.587 79.0321 34.6229V29.8182H76.763V35.0277C76.7683 36.94 77.8869 38.1065 79.5328 38.1065C80.7633 38.1065 81.6475 37.4727 82.0151 36.5138H82.1003V38H84.2789V29.8182H82.0098V34.5163ZM89.7907 38.1598C91.9694 38.1598 93.3383 36.8814 93.4449 35.0011H91.3035C91.1704 35.8746 90.5951 36.3647 89.8174 36.3647C88.7574 36.3647 88.0702 35.4751 88.0702 33.9091C88.0702 32.3643 88.7627 31.4801 89.8174 31.4801C90.6483 31.4801 91.181 32.0288 91.3035 32.8438H93.4449C93.349 30.9528 91.9161 29.7116 89.7801 29.7116C87.2979 29.7116 85.7638 31.4322 85.7638 33.9411C85.7638 36.4286 87.2712 38.1598 89.7907 38.1598ZM99.2496 29.8182H97.7102V27.858H95.4411V29.8182H94.3224V31.5227H95.4411V35.7841C95.4304 37.3874 96.5224 38.1811 98.1683 38.1119C98.7543 38.0906 99.1697 37.9734 99.3988 37.8988L99.0419 36.2102C98.93 36.2315 98.6903 36.2848 98.4773 36.2848C98.0245 36.2848 97.7102 36.1143 97.7102 35.4858V31.5227H99.2496V29.8182ZM104.337 38.1598C106.819 38.1598 108.364 36.4606 108.364 33.9411C108.364 31.4055 106.819 29.7116 104.337 29.7116C101.854 29.7116 100.31 31.4055 100.31 33.9411C100.31 36.4606 101.854 38.1598 104.337 38.1598ZM104.347 36.402C103.202 36.402 102.616 35.3526 102.616 33.9251C102.616 32.4975 103.202 31.4428 104.347 31.4428C105.471 31.4428 106.057 32.4975 106.057 33.9251C106.057 35.3526 105.471 36.402 104.347 36.402ZM109.839 38H112.108V33.3711C112.108 32.3643 112.843 31.6719 113.845 31.6719C114.159 31.6719 114.591 31.7251 114.804 31.7944V29.7809C114.601 29.733 114.319 29.701 114.09 29.701C113.174 29.701 112.423 30.2337 112.124 31.2457H112.039V29.8182H109.839V38ZM117.627 41.0682C119.315 41.0682 120.21 40.2053 120.674 38.8842L123.854 29.8288L121.451 29.8182L119.741 35.8267H119.656L117.962 29.8182H115.576L118.511 38.2344L118.378 38.5806C118.08 39.3477 117.51 39.3849 116.711 39.1399L116.199 40.8338C116.524 40.9723 117.051 41.0682 117.627 41.0682Z" fill="white"/>
<path d="M33.9482 182H36.2546V177.494H40.6918V175.592H36.2546V172.993H41.1712V171.091H33.9482V182ZM45.8081 182.16C47.8322 182.16 49.1958 181.174 49.5154 179.656L47.4167 179.518C47.1877 180.141 46.6017 180.466 45.8453 180.466C44.7108 180.466 43.9917 179.715 43.9917 178.495V178.49H49.5634V177.866C49.5634 175.086 47.8801 173.712 45.7175 173.712C43.3098 173.712 41.7491 175.422 41.7491 177.946C41.7491 180.54 43.2885 182.16 45.8081 182.16ZM43.9917 177.083C44.0396 176.151 44.748 175.406 45.7548 175.406C46.7402 175.406 47.4221 176.109 47.4274 177.083H43.9917ZM53.3773 182.154C54.5865 182.154 55.3695 181.627 55.769 180.865H55.8329V182H57.9849V176.482C57.9849 174.532 56.3336 173.712 54.5119 173.712C52.5517 173.712 51.2626 174.649 50.9483 176.141L53.0471 176.311C53.2015 175.768 53.6863 175.368 54.5012 175.368C55.2736 175.368 55.7157 175.757 55.7157 176.428V176.46C55.7157 176.988 55.1564 177.057 53.7342 177.195C52.1149 177.344 50.6607 177.888 50.6607 179.715C50.6607 181.334 51.8166 182.154 53.3773 182.154ZM54.0272 180.588C53.3294 180.588 52.8287 180.263 52.8287 179.64C52.8287 179.001 53.356 178.687 54.155 178.575C54.6504 178.506 55.46 178.388 55.7317 178.207V179.076C55.7317 179.933 55.0233 180.588 54.0272 180.588ZM64.0973 173.818H62.5579V171.858H60.2887V173.818H59.1701V175.523H60.2887V179.784C60.2781 181.387 61.37 182.181 63.016 182.112C63.6019 182.091 64.0174 181.973 64.2464 181.899L63.8896 180.21C63.7777 180.232 63.538 180.285 63.3249 180.285C62.8722 180.285 62.5579 180.114 62.5579 179.486V175.523H64.0973V173.818ZM70.8223 178.516C70.8276 179.614 70.0765 180.189 69.2615 180.189C68.4039 180.189 67.85 179.587 67.8446 178.623V173.818H65.5755V179.028C65.5808 180.94 66.6994 182.107 68.3453 182.107C69.5758 182.107 70.46 181.473 70.8276 180.514H70.9128V182H73.0914V173.818H70.8223V178.516ZM74.9065 182H77.1757V177.371C77.1757 176.364 77.9108 175.672 78.9122 175.672C79.2265 175.672 79.6579 175.725 79.871 175.794V173.781C79.6686 173.733 79.3863 173.701 79.1572 173.701C78.241 173.701 77.49 174.234 77.1917 175.246H77.1064V173.818H74.9065V182ZM84.392 182.16C86.4162 182.16 87.7798 181.174 88.0994 179.656L86.0007 179.518C85.7717 180.141 85.1857 180.466 84.4293 180.466C83.2947 180.466 82.5756 179.715 82.5756 178.495V178.49H88.1474V177.866C88.1474 175.086 86.4641 173.712 84.3015 173.712C81.8938 173.712 80.3331 175.422 80.3331 177.946C80.3331 180.54 81.8725 182.16 84.392 182.16ZM82.5756 177.083C82.6236 176.151 83.332 175.406 84.3388 175.406C85.3242 175.406 86.006 176.109 86.0114 177.083H82.5756ZM96.4357 176.151C96.2333 174.644 95.0188 173.712 92.9521 173.712C90.8587 173.712 89.479 174.681 89.4844 176.258C89.479 177.483 90.2514 178.277 91.8494 178.596L93.2663 178.879C93.9801 179.022 94.305 179.283 94.3157 179.694C94.305 180.178 93.7777 180.525 92.984 180.525C92.1744 180.525 91.6364 180.178 91.4979 179.512L89.266 179.63C89.479 181.196 90.8107 182.16 92.9787 182.16C95.0987 182.16 96.6168 181.078 96.6222 179.464C96.6168 178.282 95.8445 177.574 94.2571 177.249L92.7763 176.95C92.0146 176.785 91.7322 176.524 91.7376 176.13C91.7322 175.64 92.2862 175.32 92.9893 175.32C93.7777 175.32 94.2464 175.752 94.3583 176.279L96.4357 176.151Z" fill="white"/>
<path opacity="0.7" d="M70.7244 55.2628H74.1548V65H75.4759V55.2628H78.9062V54.0909H70.7244V55.2628ZM82.0317 60.0781C82.0317 58.6506 82.9426 57.8409 84.1837 57.8409C85.3662 57.8409 86.08 58.5866 86.08 59.8864V65H87.3371V59.8011C87.3371 57.6971 86.2185 56.7116 84.5459 56.7116C83.2568 56.7116 82.5218 57.2496 82.1382 58.0966H82.0317V54.0909H80.7746V65H82.0317V60.0781ZM93.0673 65.1705C94.7292 65.1705 95.9437 64.3395 96.3272 63.1037L95.1127 62.7628C94.7931 63.6151 94.0527 64.0412 93.0673 64.0412C91.5918 64.0412 90.5744 63.0877 90.5158 61.3352H96.4551V60.8026C96.4551 57.7557 94.644 56.7116 92.9395 56.7116C90.7235 56.7116 89.2534 58.4588 89.2534 60.973C89.2534 63.4872 90.7022 65.1705 93.0673 65.1705ZM90.5158 60.2486C90.601 58.9755 91.5012 57.8409 92.9395 57.8409C94.3031 57.8409 95.1767 58.8636 95.1767 60.2486H90.5158ZM103.843 60.0781C103.843 58.6506 104.754 57.8409 105.995 57.8409C107.178 57.8409 107.892 58.5866 107.892 59.8864V65H109.149V59.8011C109.149 57.6971 108.03 56.7116 106.357 56.7116C105.068 56.7116 104.333 57.2496 103.95 58.0966H103.843V54.0909H102.586V65H103.843V60.0781ZM114.772 65.1705C116.988 65.1705 118.48 63.4872 118.48 60.9517C118.48 58.3949 116.988 56.7116 114.772 56.7116C112.556 56.7116 111.065 58.3949 111.065 60.9517C111.065 63.4872 112.556 65.1705 114.772 65.1705ZM114.772 64.0412C113.089 64.0412 112.322 62.5923 112.322 60.9517C112.322 59.3111 113.089 57.8409 114.772 57.8409C116.456 57.8409 117.223 59.3111 117.223 60.9517C117.223 62.5923 116.456 64.0412 114.772 64.0412ZM120.399 65H121.656V59.8864C121.656 58.6879 122.529 57.8409 123.509 57.8409C124.463 57.8409 125.129 58.4641 125.129 59.3963V65H126.407V59.6733C126.407 58.6186 127.068 57.8409 128.218 57.8409C129.113 57.8409 129.88 58.315 129.88 59.5241V65H131.137V59.5241C131.137 57.6012 130.104 56.7116 128.644 56.7116C127.472 56.7116 126.615 57.2496 126.194 58.0966H126.109C125.704 57.223 124.99 56.7116 123.914 56.7116C122.849 56.7116 122.061 57.223 121.72 58.0966H121.613V56.8182H120.399V65ZM136.866 65.1705C138.528 65.1705 139.743 64.3395 140.126 63.1037L138.912 62.7628C138.592 63.6151 137.852 64.0412 136.866 64.0412C135.391 64.0412 134.373 63.0877 134.315 61.3352H140.254V60.8026C140.254 57.7557 138.443 56.7116 136.738 56.7116C134.522 56.7116 133.052 58.4588 133.052 60.973C133.052 63.4872 134.501 65.1705 136.866 65.1705ZM134.315 60.2486C134.4 58.9755 135.3 57.8409 136.738 57.8409C138.102 57.8409 138.975 58.8636 138.975 60.2486H134.315ZM150.028 56.8182H148.196V55.9872C148.196 55.1776 148.537 54.7514 149.368 54.7514C149.73 54.7514 149.943 54.8366 150.071 54.8793L150.433 53.7926C150.241 53.7074 149.858 53.5795 149.24 53.5795C148.068 53.5795 146.939 54.2827 146.939 55.6889V56.8182H145.618V57.8835H146.939V65H148.196V57.8835H150.028V56.8182ZM154.777 65.1705C156.993 65.1705 158.485 63.4872 158.485 60.9517C158.485 58.3949 156.993 56.7116 154.777 56.7116C152.561 56.7116 151.07 58.3949 151.07 60.9517C151.07 63.4872 152.561 65.1705 154.777 65.1705ZM154.777 64.0412C153.094 64.0412 152.327 62.5923 152.327 60.9517C152.327 59.3111 153.094 57.8409 154.777 57.8409C156.46 57.8409 157.227 59.3111 157.227 60.9517C157.227 62.5923 156.46 64.0412 154.777 64.0412ZM160.403 65H161.661V59.8224C161.661 58.7145 162.534 57.9048 163.727 57.9048C164.063 57.9048 164.409 57.9688 164.494 57.9901V56.7116C164.351 56.701 164.02 56.6903 163.834 56.6903C162.854 56.6903 162.002 57.2443 161.703 58.054H161.618V56.8182H160.403V65ZM171.013 68.0682C172.148 68.0682 172.947 67.4663 173.421 66.1932L176.904 56.8395L175.53 56.8182L173.271 63.3381H173.186L170.928 56.8182H169.564L172.59 65.0426L172.355 65.6818C171.897 66.9283 171.333 67.0455 170.416 66.8111L170.097 67.919C170.225 67.983 170.587 68.0682 171.013 68.0682ZM181.598 65.1705C183.814 65.1705 185.306 63.4872 185.306 60.9517C185.306 58.3949 183.814 56.7116 181.598 56.7116C179.383 56.7116 177.891 58.3949 177.891 60.9517C177.891 63.4872 179.383 65.1705 181.598 65.1705ZM181.598 64.0412C179.915 64.0412 179.148 62.5923 179.148 60.9517C179.148 59.3111 179.915 57.8409 181.598 57.8409C183.282 57.8409 184.049 59.3111 184.049 60.9517C184.049 62.5923 183.282 64.0412 181.598 64.0412ZM192.381 61.6548C192.381 63.1889 191.209 63.892 190.272 63.892C189.228 63.892 188.482 63.125 188.482 61.9318V56.8182H187.225V62.017C187.225 64.1051 188.333 65.1065 189.867 65.1065C191.103 65.1065 191.912 64.446 192.296 63.6151H192.381V65H193.638V56.8182H192.381V61.6548ZM195.941 65H197.198V59.8224C197.198 58.7145 198.071 57.9048 199.264 57.9048C199.6 57.9048 199.946 57.9688 200.032 57.9901V56.7116C199.888 56.701 199.557 56.6903 199.371 56.6903C198.391 56.6903 197.539 57.2443 197.24 58.054H197.155V56.8182H195.941V65ZM206.998 60.0781C206.998 58.6506 207.882 57.8409 209.086 57.8409C210.252 57.8409 210.961 58.6026 210.961 59.8864V65H212.218V59.8011C212.218 57.7131 211.104 56.7116 209.448 56.7116C208.212 56.7116 207.445 57.2656 207.061 58.0966H206.955V56.8182H205.74V65H206.998V60.0781ZM217.839 65.1705C220.055 65.1705 221.546 63.4872 221.546 60.9517C221.546 58.3949 220.055 56.7116 217.839 56.7116C215.623 56.7116 214.131 58.3949 214.131 60.9517C214.131 63.4872 215.623 65.1705 217.839 65.1705ZM217.839 64.0412C216.155 64.0412 215.388 62.5923 215.388 60.9517C215.388 59.3111 216.155 57.8409 217.839 57.8409C219.522 57.8409 220.289 59.3111 220.289 60.9517C220.289 62.5923 219.522 64.0412 217.839 64.0412ZM227.023 56.8182H225.276V54.858H224.019V56.8182H222.783V57.8835H224.019V62.9972C224.019 64.4247 225.17 65.1065 226.235 65.1065C226.704 65.1065 227.002 65.0213 227.172 64.9574L226.917 63.8281C226.81 63.8494 226.64 63.892 226.363 63.892C225.809 63.892 225.276 63.7216 225.276 62.6562V57.8835H227.023V56.8182ZM232.257 65.1705C233.919 65.1705 235.133 64.3395 235.517 63.1037L234.302 62.7628C233.983 63.6151 233.242 64.0412 232.257 64.0412C230.781 64.0412 229.764 63.0877 229.705 61.3352H235.645V60.8026C235.645 57.7557 233.833 56.7116 232.129 56.7116C229.913 56.7116 228.443 58.4588 228.443 60.973C228.443 63.4872 229.892 65.1705 232.257 65.1705ZM229.705 60.2486C229.79 58.9755 230.691 57.8409 232.129 57.8409C233.493 57.8409 234.366 58.8636 234.366 60.2486H229.705ZM243.352 58.6506C242.958 57.4893 242.074 56.7116 240.455 56.7116C238.729 56.7116 237.45 57.6918 237.45 59.0767C237.45 60.206 238.121 60.9624 239.624 61.3139L240.987 61.6335C241.813 61.8253 242.202 62.2195 242.202 62.7841C242.202 63.4872 241.456 64.0625 240.284 64.0625C239.256 64.0625 238.612 63.6204 238.388 62.7415L237.195 63.0398C237.488 64.43 238.633 65.1705 240.305 65.1705C242.207 65.1705 243.501 64.1317 243.501 62.7202C243.501 61.5803 242.788 60.8612 241.328 60.5043L240.114 60.206C239.144 59.9663 238.707 59.6413 238.707 59.0128C238.707 58.3097 239.453 57.7983 240.455 57.7983C241.552 57.7983 242.005 58.4055 242.223 58.9702L243.352 58.6506Z" fill="white"/>
<path opacity="0.7" d="M70.7244 125.263H74.1548V135H75.4759V125.263H78.9062V124.091H70.7244V125.263ZM82.0317 130.078C82.0317 128.651 82.9426 127.841 84.1837 127.841C85.3662 127.841 86.08 128.587 86.08 129.886V135H87.3371V129.801C87.3371 127.697 86.2185 126.712 84.5459 126.712C83.2568 126.712 82.5218 127.25 82.1382 128.097H82.0317V124.091H80.7746V135H82.0317V130.078ZM93.0673 135.17C94.7292 135.17 95.9437 134.339 96.3272 133.104L95.1127 132.763C94.7931 133.615 94.0527 134.041 93.0673 134.041C91.5918 134.041 90.5744 133.088 90.5158 131.335H96.4551V130.803C96.4551 127.756 94.644 126.712 92.9395 126.712C90.7235 126.712 89.2534 128.459 89.2534 130.973C89.2534 133.487 90.7022 135.17 93.0673 135.17ZM90.5158 130.249C90.601 128.975 91.5012 127.841 92.9395 127.841C94.3031 127.841 95.1767 128.864 95.1767 130.249H90.5158ZM102.586 138.068H103.843V133.743H103.95C104.227 134.19 104.759 135.17 106.336 135.17C108.382 135.17 109.809 133.53 109.809 130.93C109.809 128.352 108.382 126.712 106.315 126.712C104.717 126.712 104.227 127.692 103.95 128.118H103.801V126.818H102.586V138.068ZM103.822 130.909C103.822 129.077 104.632 127.841 106.166 127.841C107.764 127.841 108.552 129.183 108.552 130.909C108.552 132.656 107.742 134.041 106.166 134.041C104.653 134.041 103.822 132.763 103.822 130.909ZM115.051 135.17C117.267 135.17 118.758 133.487 118.758 130.952C118.758 128.395 117.267 126.712 115.051 126.712C112.835 126.712 111.343 128.395 111.343 130.952C111.343 133.487 112.835 135.17 115.051 135.17ZM115.051 134.041C113.367 134.041 112.6 132.592 112.6 130.952C112.6 129.311 113.367 127.841 115.051 127.841C116.734 127.841 117.501 129.311 117.501 130.952C117.501 132.592 116.734 134.041 115.051 134.041ZM126.472 128.651C126.078 127.489 125.194 126.712 123.575 126.712C121.849 126.712 120.57 127.692 120.57 129.077C120.57 130.206 121.242 130.962 122.744 131.314L124.107 131.634C124.933 131.825 125.322 132.219 125.322 132.784C125.322 133.487 124.576 134.062 123.404 134.062C122.376 134.062 121.732 133.62 121.508 132.741L120.315 133.04C120.608 134.43 121.753 135.17 123.426 135.17C125.327 135.17 126.622 134.132 126.622 132.72C126.622 131.58 125.908 130.861 124.448 130.504L123.234 130.206C122.264 129.966 121.828 129.641 121.828 129.013C121.828 128.31 122.573 127.798 123.575 127.798C124.672 127.798 125.125 128.406 125.343 128.97L126.472 128.651ZM134.309 128.651C133.915 127.489 133.031 126.712 131.412 126.712C129.686 126.712 128.407 127.692 128.407 129.077C128.407 130.206 129.078 130.962 130.581 131.314L131.944 131.634C132.77 131.825 133.159 132.219 133.159 132.784C133.159 133.487 132.413 134.062 131.241 134.062C130.213 134.062 129.569 133.62 129.345 132.741L128.152 133.04C128.445 134.43 129.59 135.17 131.262 135.17C133.164 135.17 134.458 134.132 134.458 132.72C134.458 131.58 133.745 130.861 132.285 130.504L131.071 130.206C130.101 129.966 129.664 129.641 129.664 129.013C129.664 128.31 130.41 127.798 131.412 127.798C132.509 127.798 132.962 128.406 133.18 128.97L134.309 128.651ZM136.351 135H137.608V126.818H136.351V135ZM136.99 125.455C137.48 125.455 137.885 125.071 137.885 124.602C137.885 124.134 137.48 123.75 136.99 123.75C136.5 123.75 136.095 124.134 136.095 124.602C136.095 125.071 136.5 125.455 136.99 125.455ZM140.081 135H141.295V133.743H141.444C141.721 134.19 142.254 135.17 143.831 135.17C145.876 135.17 147.304 133.53 147.304 130.93C147.304 128.352 145.876 126.712 143.809 126.712C142.211 126.712 141.721 127.692 141.444 128.118H141.338V124.091H140.081V135ZM141.317 130.909C141.317 129.077 142.126 127.841 143.66 127.841C145.258 127.841 146.047 129.183 146.047 130.909C146.047 132.656 145.237 134.041 143.66 134.041C142.148 134.041 141.317 132.763 141.317 130.909ZM149.227 135H150.484V126.818H149.227V135ZM149.866 125.455C150.356 125.455 150.761 125.071 150.761 124.602C150.761 124.134 150.356 123.75 149.866 123.75C149.376 123.75 148.971 124.134 148.971 124.602C148.971 125.071 149.376 125.455 149.866 125.455ZM154.043 124.091H152.786V135H154.043V124.091ZM156.346 135H157.603V126.818H156.346V135ZM156.985 125.455C157.475 125.455 157.88 125.071 157.88 124.602C157.88 124.134 157.475 123.75 156.985 123.75C156.495 123.75 156.09 124.134 156.09 124.602C156.09 125.071 156.495 125.455 156.985 125.455ZM163.464 126.818H161.717V124.858H160.459V126.818H159.224V127.884H160.459V132.997C160.459 134.425 161.61 135.107 162.675 135.107C163.144 135.107 163.442 135.021 163.613 134.957L163.357 133.828C163.251 133.849 163.08 133.892 162.803 133.892C162.249 133.892 161.717 133.722 161.717 132.656V127.884H163.464V126.818ZM165.355 135H166.612V126.818H165.355V135ZM165.994 125.455C166.484 125.455 166.889 125.071 166.889 124.602C166.889 124.134 166.484 123.75 165.994 123.75C165.504 123.75 165.099 124.134 165.099 124.602C165.099 125.071 165.504 125.455 165.994 125.455ZM172.345 135.17C174.007 135.17 175.221 134.339 175.605 133.104L174.39 132.763C174.07 133.615 173.33 134.041 172.345 134.041C170.869 134.041 169.852 133.088 169.793 131.335H175.732V130.803C175.732 127.756 173.921 126.712 172.217 126.712C170.001 126.712 168.531 128.459 168.531 130.973C168.531 133.487 169.98 135.17 172.345 135.17ZM169.793 130.249C169.878 128.975 170.779 127.841 172.217 127.841C173.58 127.841 174.454 128.864 174.454 130.249H169.793ZM183.44 128.651C183.046 127.489 182.162 126.712 180.542 126.712C178.817 126.712 177.538 127.692 177.538 129.077C177.538 130.206 178.209 130.962 179.711 131.314L181.075 131.634C181.901 131.825 182.29 132.219 182.29 132.784C182.29 133.487 181.544 134.062 180.372 134.062C179.344 134.062 178.699 133.62 178.476 132.741L177.282 133.04C177.575 134.43 178.721 135.17 180.393 135.17C182.295 135.17 183.589 134.132 183.589 132.72C183.589 131.58 182.876 130.861 181.416 130.504L180.202 130.206C179.232 129.966 178.795 129.641 178.795 129.013C178.795 128.31 179.541 127.798 180.542 127.798C181.64 127.798 182.093 128.406 182.311 128.97L183.44 128.651Z" fill="white"/>
<path opacity="0.7" d="M102.58 80.2102H105.324V88H106.381V80.2102H109.125V79.2727H102.58V80.2102ZM111.625 84.0625C111.625 82.9205 112.354 82.2727 113.347 82.2727C114.293 82.2727 114.864 82.8693 114.864 83.9091V88H115.87V83.8409C115.87 82.1577 114.975 81.3693 113.637 81.3693C112.605 81.3693 112.017 81.7997 111.711 82.4773H111.625V79.2727H110.62V88H111.625V84.0625ZM120.454 88.1364C121.783 88.1364 122.755 87.4716 123.062 86.483L122.09 86.2102C121.835 86.892 121.242 87.233 120.454 87.233C119.273 87.233 118.46 86.4702 118.413 85.0682H123.164V84.642C123.164 82.2045 121.715 81.3693 120.352 81.3693C118.579 81.3693 117.403 82.767 117.403 84.7784C117.403 86.7898 118.562 88.1364 120.454 88.1364ZM118.413 84.1989C118.481 83.1804 119.201 82.2727 120.352 82.2727C121.442 82.2727 122.141 83.0909 122.141 84.1989H118.413ZM128.069 90.4545H129.075V86.9943H129.16C129.381 87.3523 129.808 88.1364 131.069 88.1364C132.705 88.1364 133.847 86.8239 133.847 84.7443C133.847 82.6818 132.705 81.3693 131.052 81.3693C129.773 81.3693 129.381 82.1534 129.16 82.4943H129.04V81.4545H128.069V90.4545ZM129.058 84.7273C129.058 83.2614 129.705 82.2727 130.933 82.2727C132.211 82.2727 132.842 83.3466 132.842 84.7273C132.842 86.125 132.194 87.233 130.933 87.233C129.722 87.233 129.058 86.2102 129.058 84.7273ZM136.387 79.2727H135.381V88H136.387V79.2727ZM140.155 88.1534C141.297 88.1534 141.894 87.5398 142.098 87.1136H142.15V88H143.155V83.6875C143.155 81.608 141.57 81.3693 140.735 81.3693C139.746 81.3693 138.621 81.7102 138.11 82.9034L139.064 83.2443C139.286 82.767 139.81 82.2557 140.769 82.2557C141.694 82.2557 142.15 82.7457 142.15 83.5852V83.6193C142.15 84.1051 141.655 84.0625 140.462 84.2159C139.248 84.3736 137.922 84.642 137.922 86.142C137.922 87.4205 138.911 88.1534 140.155 88.1534ZM140.309 87.25C139.507 87.25 138.928 86.892 138.928 86.1932C138.928 85.4261 139.627 85.1875 140.411 85.0852C140.837 85.0341 141.979 84.9148 142.15 84.7102V85.6307C142.15 86.4489 141.502 87.25 140.309 87.25ZM147.837 81.4545H146.44V79.8864H145.434V81.4545H144.445V82.3068H145.434V86.3977C145.434 87.5398 146.354 88.0852 147.207 88.0852C147.582 88.0852 147.82 88.017 147.957 87.9659L147.752 87.0625C147.667 87.0795 147.531 87.1136 147.309 87.1136C146.866 87.1136 146.44 86.9773 146.44 86.125V82.3068H147.837V81.4545ZM152.265 81.4545H150.799V80.7898C150.799 80.142 151.072 79.8011 151.737 79.8011C152.026 79.8011 152.197 79.8693 152.299 79.9034L152.589 79.0341C152.435 78.9659 152.129 78.8636 151.634 78.8636C150.697 78.8636 149.793 79.4261 149.793 80.5511V81.4545H148.737V82.3068H149.793V88H150.799V82.3068H152.265V81.4545ZM156.064 88.1364C157.837 88.1364 159.03 86.7898 159.03 84.7614C159.03 82.7159 157.837 81.3693 156.064 81.3693C154.291 81.3693 153.098 82.7159 153.098 84.7614C153.098 86.7898 154.291 88.1364 156.064 88.1364ZM156.064 87.233C154.717 87.233 154.104 86.0739 154.104 84.7614C154.104 83.4489 154.717 82.2727 156.064 82.2727C157.411 82.2727 158.024 83.4489 158.024 84.7614C158.024 86.0739 157.411 87.233 156.064 87.233ZM160.565 88H161.571V83.858C161.571 82.9716 162.27 82.3239 163.224 82.3239C163.493 82.3239 163.77 82.375 163.838 82.392V81.3693C163.723 81.3608 163.458 81.3523 163.309 81.3523C162.525 81.3523 161.843 81.7955 161.605 82.4432H161.537V81.4545H160.565V88ZM165.03 88H166.036V83.9091C166.036 82.9503 166.734 82.2727 167.518 82.2727C168.281 82.2727 168.814 82.7713 168.814 83.517V88H169.837V83.7386C169.837 82.8949 170.365 82.2727 171.286 82.2727C172.001 82.2727 172.615 82.652 172.615 83.6193V88H173.621V83.6193C173.621 82.081 172.794 81.3693 171.626 81.3693C170.689 81.3693 170.003 81.7997 169.666 82.4773H169.598C169.274 81.7784 168.703 81.3693 167.842 81.3693C166.99 81.3693 166.359 81.7784 166.087 82.4773H166.001V81.4545H165.03V88ZM181.749 81.4545H180.283V80.7898C180.283 80.142 180.556 79.8011 181.221 79.8011C181.511 79.8011 181.681 79.8693 181.783 79.9034L182.073 79.0341C181.92 78.9659 181.613 78.8636 181.119 78.8636C180.181 78.8636 179.278 79.4261 179.278 80.5511V81.4545H178.221V82.3068H179.278V88H180.283V82.3068H181.749V81.4545ZM185.548 88.1364C187.321 88.1364 188.514 86.7898 188.514 84.7614C188.514 82.7159 187.321 81.3693 185.548 81.3693C183.776 81.3693 182.582 82.7159 182.582 84.7614C182.582 86.7898 183.776 88.1364 185.548 88.1364ZM185.548 87.233C184.202 87.233 183.588 86.0739 183.588 84.7614C183.588 83.4489 184.202 82.2727 185.548 82.2727C186.895 82.2727 187.509 83.4489 187.509 84.7614C187.509 86.0739 186.895 87.233 185.548 87.233ZM190.049 88H191.055V83.858C191.055 82.9716 191.754 82.3239 192.708 82.3239C192.977 82.3239 193.254 82.375 193.322 82.392V81.3693C193.207 81.3608 192.943 81.3523 192.794 81.3523C192.01 81.3523 191.328 81.7955 191.089 82.4432H191.021V81.4545H190.049V88ZM197.889 90.4545H198.895V86.9943H198.98C199.202 87.3523 199.628 88.1364 200.889 88.1364C202.526 88.1364 203.668 86.8239 203.668 84.7443C203.668 82.6818 202.526 81.3693 200.872 81.3693C199.594 81.3693 199.202 82.1534 198.98 82.4943H198.861V81.4545H197.889V90.4545ZM198.878 84.7273C198.878 83.2614 199.526 82.2727 200.753 82.2727C202.031 82.2727 202.662 83.3466 202.662 84.7273C202.662 86.125 202.014 87.233 200.753 87.233C199.543 87.233 198.878 86.2102 198.878 84.7273ZM206.207 79.2727H205.202V88H206.207V79.2727ZM209.975 88.1534C211.118 88.1534 211.714 87.5398 211.919 87.1136H211.97V88H212.975V83.6875C212.975 81.608 211.39 81.3693 210.555 81.3693C209.566 81.3693 208.441 81.7102 207.93 82.9034L208.885 83.2443C209.106 82.767 209.63 82.2557 210.589 82.2557C211.514 82.2557 211.97 82.7457 211.97 83.5852V83.6193C211.97 84.1051 211.475 84.0625 210.282 84.2159C209.068 84.3736 207.743 84.642 207.743 86.142C207.743 87.4205 208.731 88.1534 209.975 88.1534ZM210.129 87.25C209.328 87.25 208.748 86.892 208.748 86.1932C208.748 85.4261 209.447 85.1875 210.231 85.0852C210.657 85.0341 211.799 84.9148 211.97 84.7102V85.6307C211.97 86.4489 211.322 87.25 210.129 87.25ZM215.817 84.0625C215.817 82.9205 216.524 82.2727 217.487 82.2727C218.42 82.2727 218.987 82.8821 218.987 83.9091V88H219.993V83.8409C219.993 82.1705 219.102 81.3693 217.777 81.3693C216.788 81.3693 216.175 81.8125 215.868 82.4773H215.783V81.4545H214.811V88H215.817V84.0625ZM222.836 84.0625C222.836 82.9205 223.544 82.2727 224.507 82.2727C225.44 82.2727 226.007 82.8821 226.007 83.9091V88H227.012V83.8409C227.012 82.1705 226.122 81.3693 224.797 81.3693C223.808 81.3693 223.194 81.8125 222.887 82.4773H222.802V81.4545H221.831V88H222.836V84.0625ZM228.85 88H229.856V81.4545H228.85V88ZM229.362 80.3636C229.754 80.3636 230.077 80.0568 230.077 79.6818C230.077 79.3068 229.754 79 229.362 79C228.969 79 228.646 79.3068 228.646 79.6818C228.646 80.0568 228.969 80.3636 229.362 80.3636ZM232.703 84.0625C232.703 82.9205 233.411 82.2727 234.374 82.2727C235.307 82.2727 235.874 82.8821 235.874 83.9091V88H236.88V83.8409C236.88 82.1705 235.989 81.3693 234.664 81.3693C233.675 81.3693 233.061 81.8125 232.755 82.4773H232.669V81.4545H231.698V88H232.703V84.0625ZM241.359 90.5909C242.928 90.5909 244.189 89.875 244.189 88.1875V81.4545H243.217V82.4943H243.115C242.893 82.1534 242.484 81.3693 241.206 81.3693C239.553 81.3693 238.411 82.6818 238.411 84.6932C238.411 86.7386 239.604 87.8977 241.189 87.8977C242.467 87.8977 242.876 87.1477 243.098 86.7898H243.183V88.1193C243.183 89.2102 242.416 89.7045 241.359 89.7045C240.17 89.7045 239.753 89.0781 239.484 88.7159L238.683 89.2784C239.092 89.9645 239.898 90.5909 241.359 90.5909ZM241.325 86.9943C240.064 86.9943 239.416 86.0398 239.416 84.6761C239.416 83.3466 240.047 82.2727 241.325 82.2727C242.553 82.2727 243.2 83.2614 243.2 84.6761C243.2 86.125 242.536 86.9943 241.325 86.9943Z" fill="white"/>
<path opacity="0.7" d="M102.307 99.2727L105.46 104.403V108H106.517V104.403L109.67 99.2727H108.46L106.04 103.347H105.938L103.517 99.2727H102.307ZM112.634 108.136C114.407 108.136 115.6 106.79 115.6 104.761C115.6 102.716 114.407 101.369 112.634 101.369C110.862 101.369 109.668 102.716 109.668 104.761C109.668 106.79 110.862 108.136 112.634 108.136ZM112.634 107.233C111.288 107.233 110.674 106.074 110.674 104.761C110.674 103.449 111.288 102.273 112.634 102.273C113.981 102.273 114.594 103.449 114.594 104.761C114.594 106.074 113.981 107.233 112.634 107.233ZM121.26 105.324C121.26 106.551 120.323 107.114 119.573 107.114C118.738 107.114 118.141 106.5 118.141 105.545V101.455H117.135V105.614C117.135 107.284 118.022 108.085 119.249 108.085C120.238 108.085 120.885 107.557 121.192 106.892H121.26V108H122.266V101.455H121.26V105.324ZM124.108 108H125.114V103.858C125.114 102.972 125.812 102.324 126.767 102.324C127.036 102.324 127.312 102.375 127.381 102.392V101.369C127.266 101.361 127.001 101.352 126.852 101.352C126.068 101.352 125.386 101.795 125.148 102.443H125.08V101.455H124.108V108ZM134.607 108.136C136.056 108.136 137.01 107.25 137.181 106.091H136.175C135.988 106.807 135.391 107.233 134.607 107.233C133.414 107.233 132.647 106.244 132.647 104.727C132.647 103.244 133.431 102.273 134.607 102.273C135.493 102.273 136.022 102.818 136.175 103.415H137.181C137.01 102.188 135.971 101.369 134.59 101.369C132.817 101.369 131.641 102.767 131.641 104.761C131.641 106.722 132.766 108.136 134.607 108.136ZM141.31 108.136C143.083 108.136 144.276 106.79 144.276 104.761C144.276 102.716 143.083 101.369 141.31 101.369C139.537 101.369 138.344 102.716 138.344 104.761C138.344 106.79 139.537 108.136 141.31 108.136ZM141.31 107.233C139.963 107.233 139.35 106.074 139.35 104.761C139.35 103.449 139.963 102.273 141.31 102.273C142.657 102.273 143.27 103.449 143.27 104.761C143.27 106.074 142.657 107.233 141.31 107.233ZM146.817 99.2727H145.811V108H146.817V99.2727ZM149.664 99.2727H148.659V108H149.664V99.2727ZM154.251 108.136C155.58 108.136 156.552 107.472 156.859 106.483L155.887 106.21C155.631 106.892 155.039 107.233 154.251 107.233C153.07 107.233 152.256 106.47 152.21 105.068H156.961V104.642C156.961 102.205 155.512 101.369 154.148 101.369C152.376 101.369 151.2 102.767 151.2 104.778C151.2 106.79 152.359 108.136 154.251 108.136ZM152.21 104.199C152.278 103.18 152.998 102.273 154.148 102.273C155.239 102.273 155.938 103.091 155.938 104.199H152.21ZM161.15 108.136C162.599 108.136 163.553 107.25 163.724 106.091H162.718C162.531 106.807 161.934 107.233 161.15 107.233C159.957 107.233 159.19 106.244 159.19 104.727C159.19 103.244 159.974 102.273 161.15 102.273C162.036 102.273 162.565 102.818 162.718 103.415H163.724C163.553 102.188 162.513 101.369 161.133 101.369C159.36 101.369 158.184 102.767 158.184 104.761C158.184 106.722 159.309 108.136 161.15 108.136ZM168.04 101.455H166.643V99.8864H165.637V101.455H164.648V102.307H165.637V106.398C165.637 107.54 166.558 108.085 167.41 108.085C167.785 108.085 168.023 108.017 168.16 107.966L167.955 107.062C167.87 107.08 167.734 107.114 167.512 107.114C167.069 107.114 166.643 106.977 166.643 106.125V102.307H168.04V101.455ZM169.553 108H170.559V101.455H169.553V108ZM170.065 100.364C170.457 100.364 170.781 100.057 170.781 99.6818C170.781 99.3068 170.457 99 170.065 99C169.673 99 169.349 99.3068 169.349 99.6818C169.349 100.057 169.673 100.364 170.065 100.364ZM175.06 108.136C176.833 108.136 178.026 106.79 178.026 104.761C178.026 102.716 176.833 101.369 175.06 101.369C173.287 101.369 172.094 102.716 172.094 104.761C172.094 106.79 173.287 108.136 175.06 108.136ZM175.06 107.233C173.713 107.233 173.1 106.074 173.1 104.761C173.1 103.449 173.713 102.273 175.06 102.273C176.407 102.273 177.02 103.449 177.02 104.761C177.02 106.074 176.407 107.233 175.06 107.233ZM180.567 104.062C180.567 102.92 181.274 102.273 182.237 102.273C183.17 102.273 183.737 102.882 183.737 103.909V108H184.743V103.841C184.743 102.17 183.852 101.369 182.527 101.369C181.538 101.369 180.925 101.812 180.618 102.477H180.533V101.455H179.561V108H180.567V104.062ZM192.615 108.136C194.387 108.136 195.581 106.79 195.581 104.761C195.581 102.716 194.387 101.369 192.615 101.369C190.842 101.369 189.649 102.716 189.649 104.761C189.649 106.79 190.842 108.136 192.615 108.136ZM192.615 107.233C191.268 107.233 190.654 106.074 190.654 104.761C190.654 103.449 191.268 102.273 192.615 102.273C193.961 102.273 194.575 103.449 194.575 104.761C194.575 106.074 193.961 107.233 192.615 107.233ZM200.031 101.455H198.565V100.79C198.565 100.142 198.837 99.8011 199.502 99.8011C199.792 99.8011 199.962 99.8693 200.065 99.9034L200.354 99.0341C200.201 98.9659 199.894 98.8636 199.4 98.8636C198.462 98.8636 197.559 99.4261 197.559 100.551V101.455H196.502V102.307H197.559V108H198.565V102.307H200.031V101.455ZM207.662 101.455H206.264V99.8864H205.258V101.455H204.27V102.307H205.258V106.398C205.258 107.54 206.179 108.085 207.031 108.085C207.406 108.085 207.645 108.017 207.781 107.966L207.576 107.062C207.491 107.08 207.355 107.114 207.133 107.114C206.69 107.114 206.264 106.977 206.264 106.125V102.307H207.662V101.455ZM210.321 104.062C210.321 102.92 211.049 102.273 212.042 102.273C212.988 102.273 213.559 102.869 213.559 103.909V108H214.565V103.841C214.565 102.158 213.67 101.369 212.332 101.369C211.301 101.369 210.713 101.8 210.406 102.477H210.321V99.2727H209.315V108H210.321V104.062ZM219.064 108.136C220.837 108.136 222.03 106.79 222.03 104.761C222.03 102.716 220.837 101.369 219.064 101.369C217.291 101.369 216.098 102.716 216.098 104.761C216.098 106.79 217.291 108.136 219.064 108.136ZM219.064 107.233C217.717 107.233 217.104 106.074 217.104 104.761C217.104 103.449 217.717 102.273 219.064 102.273C220.411 102.273 221.024 103.449 221.024 104.761C221.024 106.074 220.411 107.233 219.064 107.233ZM227.69 105.324C227.69 106.551 226.752 107.114 226.002 107.114C225.167 107.114 224.571 106.5 224.571 105.545V101.455H223.565V105.614C223.565 107.284 224.451 108.085 225.679 108.085C226.667 108.085 227.315 107.557 227.622 106.892H227.69V108H228.696V101.455H227.69V105.324ZM233.18 110.591C234.748 110.591 236.009 109.875 236.009 108.188V101.455H235.038V102.494H234.935C234.714 102.153 234.305 101.369 233.026 101.369C231.373 101.369 230.231 102.682 230.231 104.693C230.231 106.739 231.424 107.898 233.009 107.898C234.288 107.898 234.697 107.148 234.918 106.79H235.004V108.119C235.004 109.21 234.237 109.705 233.18 109.705C231.991 109.705 231.573 109.078 231.305 108.716L230.504 109.278C230.913 109.964 231.718 110.591 233.18 110.591ZM233.146 106.994C231.884 106.994 231.237 106.04 231.237 104.676C231.237 103.347 231.867 102.273 233.146 102.273C234.373 102.273 235.021 103.261 235.021 104.676C235.021 106.125 234.356 106.994 233.146 106.994ZM238.856 104.062C238.856 102.92 239.585 102.273 240.577 102.273C241.523 102.273 242.094 102.869 242.094 103.909V108H243.1V103.841C243.1 102.158 242.205 101.369 240.867 101.369C239.836 101.369 239.248 101.8 238.941 102.477H238.856V99.2727H237.85V108H238.856V104.062ZM247.787 101.455H246.389V99.8864H245.383V101.455H244.395V102.307H245.383V106.398C245.383 107.54 246.304 108.085 247.156 108.085C247.531 108.085 247.77 108.017 247.906 107.966L247.701 107.062C247.616 107.08 247.48 107.114 247.258 107.114C246.815 107.114 246.389 106.977 246.389 106.125V102.307H247.787V101.455ZM253.819 102.92C253.503 101.991 252.796 101.369 251.5 101.369C250.12 101.369 249.097 102.153 249.097 103.261C249.097 104.165 249.634 104.77 250.836 105.051L251.926 105.307C252.587 105.46 252.898 105.776 252.898 106.227C252.898 106.79 252.301 107.25 251.364 107.25C250.542 107.25 250.026 106.896 249.847 106.193L248.892 106.432C249.127 107.544 250.043 108.136 251.381 108.136C252.902 108.136 253.938 107.305 253.938 106.176C253.938 105.264 253.367 104.689 252.199 104.403L251.228 104.165C250.452 103.973 250.103 103.713 250.103 103.21C250.103 102.648 250.699 102.239 251.5 102.239C252.378 102.239 252.74 102.724 252.915 103.176L253.819 102.92Z" fill="white"/>
<path opacity="0.7" d="M70.7244 149.263H74.1548V159H75.4759V149.263H78.9062V148.091H70.7244V149.263ZM82.0317 154.078C82.0317 152.651 82.9426 151.841 84.1837 151.841C85.3662 151.841 86.08 152.587 86.08 153.886V159H87.3371V153.801C87.3371 151.697 86.2185 150.712 84.5459 150.712C83.2568 150.712 82.5218 151.25 82.1382 152.097H82.0317V148.091H80.7746V159H82.0317V154.078ZM93.0673 159.17C94.7292 159.17 95.9437 158.339 96.3272 157.104L95.1127 156.763C94.7931 157.615 94.0527 158.041 93.0673 158.041C91.5918 158.041 90.5744 157.088 90.5158 155.335H96.4551V154.803C96.4551 151.756 94.644 150.712 92.9395 150.712C90.7235 150.712 89.2534 152.459 89.2534 154.973C89.2534 157.487 90.7022 159.17 93.0673 159.17ZM90.5158 154.249C90.601 152.975 91.5012 151.841 92.9395 151.841C94.3031 151.841 95.1767 152.864 95.1767 154.249H90.5158ZM102.757 159H103.971V157.743H104.12C104.397 158.19 104.93 159.17 106.507 159.17C108.552 159.17 109.98 157.53 109.98 154.93C109.98 152.352 108.552 150.712 106.485 150.712C104.887 150.712 104.397 151.692 104.12 152.118H104.014V148.091H102.757V159ZM103.992 154.909C103.992 153.077 104.802 151.841 106.336 151.841C107.934 151.841 108.722 153.183 108.722 154.909C108.722 156.656 107.913 158.041 106.336 158.041C104.823 158.041 103.992 156.763 103.992 154.909ZM111.903 159H113.16V150.818H111.903V159ZM112.542 149.455C113.032 149.455 113.437 149.071 113.437 148.602C113.437 148.134 113.032 147.75 112.542 147.75C112.052 147.75 111.647 148.134 111.647 148.602C111.647 149.071 112.052 149.455 112.542 149.455ZM118.765 162.239C120.725 162.239 122.302 161.344 122.302 159.234V150.818H121.087V152.118H120.959C120.682 151.692 120.171 150.712 118.573 150.712C116.506 150.712 115.079 152.352 115.079 154.866C115.079 157.423 116.57 158.872 118.552 158.872C120.15 158.872 120.661 157.935 120.938 157.487H121.044V159.149C121.044 160.513 120.086 161.131 118.765 161.131C117.278 161.131 116.756 160.348 116.421 159.895L115.419 160.598C115.931 161.456 116.938 162.239 118.765 162.239ZM118.722 157.743C117.145 157.743 116.336 156.55 116.336 154.845C116.336 153.183 117.124 151.841 118.722 151.841C120.256 151.841 121.066 153.077 121.066 154.845C121.066 156.656 120.235 157.743 118.722 157.743ZM128.821 162.068H130.079V157.743H130.185C130.462 158.19 130.995 159.17 132.571 159.17C134.617 159.17 136.044 157.53 136.044 154.93C136.044 152.352 134.617 150.712 132.55 150.712C130.952 150.712 130.462 151.692 130.185 152.118H130.036V150.818H128.821V162.068ZM130.057 154.909C130.057 153.077 130.867 151.841 132.401 151.841C133.999 151.841 134.787 153.183 134.787 154.909C134.787 156.656 133.978 158.041 132.401 158.041C130.888 158.041 130.057 156.763 130.057 154.909ZM137.962 159H139.219V150.818H137.962V159ZM138.601 149.455C139.091 149.455 139.496 149.071 139.496 148.602C139.496 148.134 139.091 147.75 138.601 147.75C138.111 147.75 137.706 148.134 137.706 148.602C137.706 149.071 138.111 149.455 138.601 149.455ZM144.846 159.17C146.657 159.17 147.85 158.062 148.063 156.614H146.806C146.571 157.509 145.826 158.041 144.846 158.041C143.354 158.041 142.395 156.805 142.395 154.909C142.395 153.055 143.375 151.841 144.846 151.841C145.953 151.841 146.614 152.523 146.806 153.268H148.063C147.85 151.734 146.55 150.712 144.824 150.712C142.608 150.712 141.138 152.459 141.138 154.952C141.138 157.402 142.544 159.17 144.846 159.17ZM153.459 150.818H151.712V148.858H150.455V150.818H149.219V151.884H150.455V156.997C150.455 158.425 151.605 159.107 152.67 159.107C153.139 159.107 153.438 159.021 153.608 158.957L153.352 157.828C153.246 157.849 153.075 157.892 152.798 157.892C152.244 157.892 151.712 157.722 151.712 156.656V151.884H153.459V150.818ZM160.506 155.655C160.506 157.189 159.334 157.892 158.397 157.892C157.353 157.892 156.607 157.125 156.607 155.932V150.818H155.35V156.017C155.35 158.105 156.458 159.107 157.992 159.107C159.228 159.107 160.037 158.446 160.421 157.615H160.506V159H161.763V150.818H160.506V155.655ZM164.066 159H165.323V153.822C165.323 152.714 166.196 151.905 167.389 151.905C167.725 151.905 168.071 151.969 168.157 151.99V150.712C168.013 150.701 167.682 150.69 167.496 150.69C166.516 150.69 165.664 151.244 165.365 152.054H165.28V150.818H164.066V159ZM172.828 159.17C174.49 159.17 175.704 158.339 176.088 157.104L174.873 156.763C174.554 157.615 173.813 158.041 172.828 158.041C171.353 158.041 170.335 157.088 170.277 155.335H176.216V154.803C176.216 151.756 174.405 150.712 172.7 150.712C170.484 150.712 169.014 152.459 169.014 154.973C169.014 157.487 170.463 159.17 172.828 159.17ZM170.277 154.249C170.362 152.975 171.262 151.841 172.7 151.841C174.064 151.841 174.937 152.864 174.937 154.249H170.277Z" fill="white"/>
<path d="M33.9482 206H36.2546V201.494H40.6918V199.592H36.2546V196.993H41.1712V195.091H33.9482V206ZM43.2406 206L44.0502 203.512H47.9867L48.7963 206H51.2679L47.5073 195.091H44.535L40.769 206H43.2406ZM44.6362 201.712L45.9785 197.584H46.0637L47.4061 201.712H44.6362ZM62.0931 200.545C62.0931 196.977 59.8772 194.942 56.9848 194.942C54.0764 194.942 51.8765 196.977 51.8765 200.545C51.8765 204.098 54.0764 206.149 56.9848 206.149C57.6666 206.149 58.3112 206.037 58.8971 205.814L59.776 206.895H61.928L60.3673 204.935C61.4326 203.981 62.0931 202.49 62.0931 200.545ZM56.1858 202.207L57.5814 204.05C57.395 204.088 57.1926 204.109 56.9848 204.109C55.3069 204.109 54.2149 202.857 54.2149 200.545C54.2149 198.234 55.3069 196.982 56.9848 196.982C58.6574 196.982 59.7547 198.234 59.7547 200.545C59.7547 201.733 59.4617 202.644 58.9557 203.246L58.146 202.207H56.1858Z" fill="white"/>
</g>
</svg>
