<svg width="280" height="224" viewBox="0 0 280 224" fill="none" xmlns="http://www.w3.org/2000/svg">
<path d="M133 35C94.36 35 63 66.36 63 105C63 143.64 94.36 175 133 175C171.64 175 203 143.64 203 105C203 66.36 171.64 35 133 35ZM128.73 139.51V115.5H112.56C109.9 115.5 108.22 112.7 109.48 110.39L131.67 68.46C133.35 65.24 138.25 66.43 138.25 70.07V94.5H153.51C156.1 94.5 157.85 97.3 156.59 99.61L135.31 141.12C133.7 144.34 128.73 143.15 128.73 139.51Z" fill="#434344"/>
<path d="M195.888 74.826L193.893 81L191.898 74.826C190.958 71.907 188.669 69.618 185.75 68.6772L179.576 66.6822L185.75 64.6872C188.669 63.7464 190.958 61.4574 191.898 58.5384L193.893 52.3644L195.888 58.5384C196.829 61.4574 199.118 63.7464 202.037 64.6872L208.211 66.6822L202.037 68.6772C199.118 69.618 196.833 71.907 195.888 74.826Z" fill="#FEA529"/>
<path d="M180.689 58.4628L179.576 61.911L178.463 58.4628C177.992 57.0054 176.846 55.8588 175.388 55.3884L171.94 54.2712L175.388 53.1582C176.846 52.6878 177.992 51.5412 178.463 50.0838L179.576 46.6356L180.689 50.0838C181.159 51.5412 182.306 52.6878 183.763 53.1582L187.211 54.2712L183.763 55.3842C182.306 55.8588 181.163 57.0012 180.689 58.4628Z" fill="#FEA529"/>
<path d="M190.752 46.4466L190.076 48.5424L189.399 46.4466C189.093 45.4974 188.349 44.754 187.4 44.4474L185.304 43.7712L187.4 43.095C188.349 42.7884 189.093 42.045 189.399 41.0958L190.076 39L190.752 41.0958C191.058 42.045 191.802 42.7884 192.751 43.095L194.847 43.7712L192.751 44.4474C191.802 44.7582 191.058 45.5016 190.752 46.4466Z" fill="#FEA529"/>
</svg>
