<svg width="28" height="28" viewBox="0 0 28 28" fill="none" xmlns="http://www.w3.org/2000/svg">
<path d="M22.4 16.8H19.6V11.2H22.4C25.4926 11.2 28 8.6926 28 5.6C28 2.5074 25.4926 0 22.4 0C19.307 0 16.8 2.5074 16.8 5.6V8.4H11.2V5.6C11.2 2.5074 8.6926 0 5.6 0C2.5074 0 0 2.5074 0 5.6C0 8.6926 2.5074 11.2 5.6 11.2H8.4V16.8H5.6C2.5074 16.8 0 19.3074 0 22.4C0 25.4926 2.5074 28 5.6 28C8.69295 28 11.2 25.4926 11.2 22.4V19.6H16.8V22.393C16.8 22.3958 16.7997 22.3979 16.7997 22.4C16.7997 25.4926 19.307 28 22.3997 28C25.4923 28 27.9996 25.4926 27.9996 22.4C27.9996 19.3074 25.4926 16.8007 22.4 16.8ZM22.4 2.8C23.9463 2.8 25.2 4.0537 25.2 5.6C25.2 7.1463 23.9463 8.4 22.4 8.4H19.6V5.6C19.6 4.0537 20.8537 2.8 22.4 2.8ZM2.8 5.6C2.8 4.0537 4.0537 2.8 5.6 2.8C7.1463 2.8 8.4 4.0537 8.4 5.6V8.4H5.6C4.0537 8.4 2.8 7.14595 2.8 5.6ZM5.6 25.2C4.0537 25.2 2.8 23.9463 2.8 22.4C2.8 20.8537 4.0537 19.6 5.6 19.6H8.4V22.4C8.4 23.9463 7.1463 25.2 5.6 25.2ZM11.2 16.8V11.2H16.8V16.8H11.2ZM22.4 25.2C20.8537 25.2 19.6 23.9463 19.6 22.4V19.6H22.3997C23.9459 19.6 25.1996 20.8537 25.1996 22.4C25.1996 23.9463 23.9463 25.2 22.4 25.2Z" fill="#9E9EA0"/>
</svg>
