<svg width="249" height="159" viewBox="0 0 249 159" fill="none" xmlns="http://www.w3.org/2000/svg">
<path d="M107.5 84.5L170 14" stroke="#515253" stroke-width="2"/>
<path d="M107.5 84.5L235 56" stroke="#515253" stroke-width="2"/>
<path d="M107.5 84.5L197.5 121.5" stroke="#515253" stroke-width="2"/>
<path d="M236 58L197.5 121.5" stroke="#515253" stroke-width="2"/>
<path d="M236 58L46.5 146.5" stroke="#515253" stroke-width="2"/>
<path d="M198 121L46.5 146.5" stroke="#515253" stroke-width="2"/>
<path d="M108 84L46.5 146.5" stroke="#515253" stroke-width="2"/>
<path d="M14 64.5L46.5 146.5" stroke="#515253" stroke-width="2"/>
<path d="M14 64.5L59.5 14" stroke="#515253" stroke-width="2"/>
<path d="M108.5 84L59.5 14" stroke="#515253" stroke-width="2"/>
<circle cx="108" cy="83" r="15.5" fill="#292A2B" stroke="#5F45D5" stroke-width="3"/>
<circle cx="170.5" cy="13.5" r="12.5" fill="#292A2B" stroke="#9D9D9F" stroke-width="2"/>
<circle cx="197.5" cy="120.5" r="12.5" fill="#292A2B" stroke="#9D9D9F" stroke-width="2"/>
<circle cx="46.5" cy="145.5" r="12.5" fill="#292A2B" stroke="#9D9D9F" stroke-width="2"/>
<circle cx="13.5" cy="63.5" r="12.5" fill="#292A2B" stroke="#9D9D9F" stroke-width="2"/>
<circle cx="59.5" cy="13.5" r="12.5" fill="#292A2B" stroke="#9D9D9F" stroke-width="2"/>
<circle cx="235.5" cy="55.5" r="12.5" fill="#292A2B" stroke="#9D9D9F" stroke-width="2"/>
</svg>
