<svg width="128" height="128" viewBox="0 0 128 128" fill="none" xmlns="http://www.w3.org/2000/svg">
<path d="M38.5 84H57.5C58.9595 84 60.2957 84.5752 61.2777 85.5096C61.4721 85.6946 61.7208 85.81 61.9891 85.81C62.5474 85.81 63 85.3574 63 84.7991V41.3787C63 39.8423 62.1422 38.4175 60.7603 37.746C59.7761 37.2677 58.6697 37 57.5 37H38.5C37.95 37 37.5 37.45 37.5 38V83C37.5 83.56 37.95 84 38.5 84ZM43.83 46.25H58.67C59.22 46.25 59.67 46.7 59.67 47.25C59.67 47.81 59.22 48.25 58.67 48.25H43.83C43.28 48.25 42.83 47.81 42.83 47.25C42.83 46.7 43.28 46.25 43.83 46.25ZM43.83 55.09H58.67C59.22 55.09 59.67 55.53 59.67 56.09C59.67 56.64 59.22 57.09 58.67 57.09H43.83C43.28 57.09 42.83 56.64 42.83 56.09C42.83 55.53 43.28 55.09 43.83 55.09ZM43.83 63.92H58.67C59.22 63.92 59.67 64.37 59.67 64.92C59.67 65.47 59.22 65.92 58.67 65.92H43.83C43.28 65.92 42.83 65.47 42.83 64.92C42.83 64.37 43.28 63.92 43.83 63.92ZM43.83 72.75H58.67C59.22 72.75 59.67 73.2 59.67 73.75C59.67 74.31 59.22 74.75 58.67 74.75H43.83C43.28 74.75 42.83 74.31 42.83 73.75C42.83 73.2 43.28 72.75 43.83 72.75Z" fill="#E5E5E5"/>
<path d="M96 43.5032H92.5V83.0002C92.5 84.6545 91.1543 86.0002 89.5 86.0002H70.5C69.6035 86.0002 68.751 86.3406 68.1006 86.9587C67.5244 87.5076 66.7822 87.8103 66.0107 87.8103C65.2352 87.8103 64.5343 87.5074 64 87.024C63.4657 87.5074 62.7648 87.8103 61.9893 87.8103C61.2188 87.8103 60.4766 87.5076 59.8994 86.9578C59.25 86.3406 58.3975 86.0002 57.5 86.0002H38.5C36.8457 86.0002 35.5 84.6545 35.5 83.0002V43.5032H32C31.4473 43.5032 31 43.9509 31 44.5032V89.5032C31 90.0554 31.4473 90.5032 32 90.5032H96C96.5527 90.5032 97 90.0554 97 89.5032V44.5032C97 43.9509 96.5527 43.5032 96 43.5032Z" fill="#E5E5E5"/>
<path d="M66.0109 85.81C66.2793 85.81 66.528 85.6946 66.7224 85.5096C67.7044 84.5752 69.0405 84 70.5 84H89.5C90.0523 84 90.5 83.5522 90.5 83V38C90.5 37.45 90.05 37 89.5 37H70.5C69.3303 37 68.224 37.2677 67.2397 37.746C65.8578 38.4175 65 39.8423 65 41.3787V84.7991C65 85.3574 65.4526 85.81 66.0109 85.81ZM69.33 46.25H84.17C84.72 46.25 85.17 46.7 85.17 47.25C85.17 47.81 84.72 48.25 84.17 48.25H69.33C68.78 48.25 68.33 47.81 68.33 47.25C68.33 46.7 68.78 46.25 69.33 46.25ZM69.33 55.09H84.17C84.72 55.09 85.17 55.53 85.17 56.09C85.17 56.64 84.72 57.09 84.17 57.09H69.33C68.78 57.09 68.33 56.64 68.33 56.09C68.33 55.53 68.78 55.09 69.33 55.09ZM69.33 63.92H84.17C84.72 63.92 85.17 64.37 85.17 64.92C85.17 65.47 84.72 65.92 84.17 65.92H69.33C68.78 65.92 68.33 65.47 68.33 64.92C68.33 64.37 68.78 63.92 69.33 63.92ZM69.33 72.75H84.17C84.72 72.75 85.17 73.2 85.17 73.75C85.17 74.31 84.72 74.75 84.17 74.75H69.33C68.78 74.75 68.33 74.31 68.33 73.75C68.33 73.2 68.78 72.75 69.33 72.75Z" fill="#E5E5E5"/>
</svg>
