<svg width="128" height="128" viewBox="0 0 128 128" fill="none" xmlns="http://www.w3.org/2000/svg">
<path d="M98.3748 68.5833C100.562 65.7708 100.458 61.6041 97.854 58.9999C97.0207 58.1666 95.8748 57.5416 94.729 57.2291C95.1457 56.2916 95.354 55.2499 95.354 54.2083C95.354 52.2291 94.6248 50.4583 93.2707 49.1041C90.6665 46.4999 86.7082 46.2916 83.8957 48.3749C83.5832 47.5416 83.1665 46.7083 82.5415 45.9791C81.1873 44.5208 79.3123 43.5833 77.3332 43.5833C75.4582 43.4791 73.5832 44.2083 72.229 45.5624C72.0207 45.2499 71.8123 44.8333 71.4998 44.6249C70.1457 43.1666 68.2707 42.2291 66.2915 42.2291C64.2082 42.1249 62.3332 42.9583 60.979 44.3124L50.5623 54.6249C49.4165 50.2499 45.2498 47.2291 40.6665 47.7499C39.4165 47.8541 38.2707 48.4791 37.4373 49.3124C35.5623 47.2291 32.6457 45.9791 29.6248 46.2916C26.8123 46.6041 24.6248 48.9999 24.6248 51.9166L24.729 67.0208C24.729 70.9791 24.2082 75.0416 23.2707 78.5833V78.6874C21.1873 85.9791 23.2707 93.7916 28.5832 99.1041C34.104 104.625 41.4998 107.646 49.2082 107.646C49.8332 107.646 50.5623 107.646 51.1873 107.542C54.104 108.479 57.229 109 60.2498 109C67.7498 109 75.2498 106.187 80.8748 100.458L100.979 80.2499C102.333 78.8958 103.062 77.0208 103.062 75.1458C103.062 73.1666 102.333 71.3958 100.979 70.0416C100.25 69.4166 99.3123 68.8958 98.3748 68.5833ZM63.9998 47.3333C64.6248 46.7083 65.4582 46.4999 66.1873 46.4999C67.0207 46.4999 67.7498 46.9166 68.2707 47.4374C68.5832 47.8541 68.7915 48.3749 68.7915 48.8958L51.604 66.4999L51.0832 60.1458L63.9998 47.3333ZM31.604 96.1874C27.3332 91.9166 25.7707 85.7708 27.3332 80.0416C28.479 75.8749 28.9998 71.4999 28.9998 67.1249L28.8957 52.0208C28.8957 51.3958 29.4165 50.7708 30.0415 50.7708C32.7498 50.4583 35.1457 52.4374 35.4582 55.0416L35.6665 57.5416L35.7707 68.4791C35.7707 72.4374 35.2498 76.3958 34.4165 79.9374C34.4165 80.0416 34.3123 80.0416 34.3123 80.1458C32.229 87.4374 34.3123 95.2499 39.6248 100.562C40.1457 101.083 40.7707 101.604 41.2915 102.125C37.6457 100.875 34.3123 98.8958 31.604 96.1874ZM97.9582 77.3333L77.854 97.5416C68.1665 107.229 52.3332 107.229 42.6457 97.5416C38.479 93.3749 36.8123 87.2291 38.3748 81.4999V81.3958C39.5207 77.1249 40.0415 72.8541 40.0415 68.4791V57.5416V57.2291V53.3749C40.0415 52.7499 40.5623 52.1249 41.1873 52.1249C43.8957 51.8124 46.2915 53.7916 46.604 56.3958L47.3332 66.9166C47.5415 68.4791 48.5832 69.8333 50.0415 70.3541C51.604 70.8749 53.1665 70.4583 54.3123 69.4166L74.9373 48.7916C75.5623 48.1666 76.0832 47.8541 77.1248 47.9583C77.9582 47.9583 78.6873 48.3749 79.2082 48.8958C80.1457 49.9374 80.0415 52.0208 78.8957 53.1666L63.5832 68.5833C62.7498 69.4166 62.7498 70.7708 63.5832 71.6041C63.9998 72.0208 64.5207 72.2291 65.1457 72.2291C65.6665 72.2291 66.2915 72.0208 66.7082 71.6041L82.1248 56.1874L86.1873 52.1249C87.3332 50.9791 89.2082 50.9791 90.354 52.1249C90.8748 52.6458 91.1873 53.3749 91.1873 54.2083C91.1873 55.0416 90.8748 55.7708 90.354 56.2916L70.7707 75.7708C69.9373 76.6041 69.9373 77.9583 70.7707 78.7916C71.1873 79.2083 71.7082 79.4166 72.3332 79.4166C72.9582 79.4166 73.479 79.2083 73.8957 78.7916L84.8332 67.8541L90.6665 62.0208C91.8123 60.8749 93.6873 60.8749 94.8332 62.0208C95.979 63.1666 95.979 65.0416 94.8332 66.1874L90.8748 70.1458L87.9582 72.9583L77.9582 82.9583C77.1248 83.7916 77.1248 85.1458 77.9582 85.9791C78.3748 86.3958 78.8957 86.6041 79.5207 86.6041C80.1457 86.6041 80.6665 86.3958 81.0832 85.9791L93.8957 73.1666C95.0415 72.0208 96.9165 72.0208 98.0623 73.1666C98.5832 73.6874 98.8957 74.4166 98.8957 75.2499C98.8957 76.0833 98.5832 76.8124 97.9582 77.3333ZM84.5207 32.9583L89.8332 21.6041C90.354 20.5624 91.604 20.0416 92.6457 20.5624C93.6873 21.0833 94.2082 22.3333 93.6873 23.3749L88.479 34.8333C88.0623 35.6666 87.3332 36.0833 86.4998 36.0833C86.1873 36.0833 85.8748 35.9791 85.5623 35.8749C84.5207 35.3541 84.104 33.9999 84.5207 32.9583ZM73.3748 21.3958C73.0623 20.2499 73.7915 19.1041 74.9373 18.7916C76.0832 18.4791 77.229 19.1041 77.5415 20.2499L80.7707 32.3333C81.0832 33.4791 80.354 34.6249 79.2082 34.9374C78.9998 34.9374 78.7915 35.0416 78.6873 35.0416C77.7498 35.0416 76.9165 34.4166 76.604 33.4791L73.3748 21.3958ZM104.521 35.9791L93.1665 41.2916C92.854 41.3958 92.5415 41.4999 92.229 41.4999C91.3957 41.4999 90.6665 41.0833 90.2498 40.2499C89.729 39.2083 90.2498 37.8541 91.2915 37.4374L102.646 32.1249C103.687 31.6041 105.042 32.1249 105.458 33.1666C106.083 34.2083 105.562 35.4583 104.521 35.9791Z" fill="#E5E5E5"/>
</svg>
