<svg width="128" height="128" viewBox="0 0 128 128" fill="none" xmlns="http://www.w3.org/2000/svg">
<path d="M33 33C29.1566 33 26 36.1566 26 40V81H22C21.9376 80.9971 21.875 80.9971 21.8125 81C21.3152 81.0469 20.8535 81.2781 20.5181 81.6482C20.1827 82.0183 19.9979 82.5005 20 83V87C20 91.3974 23.6026 95 28 95H100C104.397 95 108 91.3974 108 87V83C108 82.4696 107.789 81.9609 107.414 81.5859C107.039 81.2108 106.53 81.0001 106 81H102V40C102 36.1566 98.8434 33 95 33H33ZM33 37H95C96.6966 37 98 38.3034 98 40V81H30V40C30 38.3034 31.3034 37 33 37ZM63.8125 41C54.0218 40.9998 45.9998 48.7836 46 58.0625C45.985 59.1188 46.9435 59.9997 48 60C49.0567 60 50.015 59.1191 50 58.0625C49.9999 51.1078 56.1479 45.0001 63.8125 45C68.5257 45.0001 72.7202 47.3671 75.2188 51H74C72.8955 51.0001 71.9998 51.8954 72 53C71.9999 54.1045 72.8956 54.9997 74 55H80C81.1048 54.9997 82 54.1045 82 53V47C82.0001 45.8955 81.1045 45.0001 80 45C78.8953 45.0002 78.0001 45.8954 78 47V48.0312C74.7286 43.7455 69.5675 41.0001 63.8125 41ZM80 58C78.9433 58.0003 77.9851 58.8806 78 59.9375C78.0001 66.8918 71.8521 72.9998 64.1875 73C59.474 72.9997 55.2798 70.6328 52.7812 67H54C55.1046 67 56.0001 66.1048 56 65C56 63.8956 55.1043 63.0001 54 63H48C46.8954 63.0003 46 63.8952 46 65V71C46.0001 72.1047 46.8953 73.0004 48 73C49.1044 73.0003 50 72.1046 50 71V69.9687C53.2714 74.2549 58.4319 77 64.1875 77C73.9778 76.9999 81.9998 69.2164 82 59.9375C82.015 58.881 81.0566 58.0003 80 58ZM24 85H104V87C104 89.2506 102.251 91 100 91H28C25.7494 91 24 89.2506 24 87V85Z" fill="#E5E5E5"/>
</svg>
