<svg width="128" height="128" viewBox="0 0 128 128" fill="none" xmlns="http://www.w3.org/2000/svg">
<g clip-path="url(#clip0)">
<path fill-rule="evenodd" clip-rule="evenodd" d="M93.141 97.2461C93.141 97.2461 67.301 93.6551 64.911 114.69C64.911 114.69 64.31 94.8551 35.449 97.2461C35.449 97.2461 38.449 84.6221 15.001 84.6221L46.863 69.0161L49.863 17.8971L52.276 23.9141C52.276 23.9141 64.91 20.9001 76.931 23.9141L79.344 17.3101L82.932 69.5901L113 84.6221C113 84.6221 91.965 82.8281 93.141 97.2461ZM78.115 49.7591L64.91 53.9661L51.069 49.7591V63.5871L58.281 70.8261H70.31L78.115 63.5871V49.7591Z" fill="#E5E5E5"/>
</g>
<defs>
<clipPath id="clip0">
<rect width="128" height="128" fill="white"/>
</clipPath>
</defs>
</svg>
