<svg width="42" height="53" viewBox="0 0 42 53" fill="none" xmlns="http://www.w3.org/2000/svg">
<path d="M26.8884 35.826L24.8934 42L22.8984 35.826C21.9576 32.907 19.6686 30.618 16.7496 29.6772L10.5756 27.6822L16.7496 25.6872C19.6686 24.7464 21.9576 22.4574 22.8984 19.5384L24.8934 13.3644L26.8884 19.5384C27.8292 22.4574 30.1182 24.7464 33.0372 25.6872L39.2112 27.6822L33.0372 29.6772C30.1182 30.618 27.8334 32.907 26.8884 35.826Z" fill="#FEA529"/>
<path d="M11.6886 19.4628L10.5756 22.911L9.4626 19.4628C8.9922 18.0054 7.8456 16.8588 6.3882 16.3884L2.94 15.2712L6.3882 14.1582C7.8456 13.6878 8.9922 12.5412 9.4626 11.0838L10.5756 7.63556L11.6886 11.0838C12.159 12.5412 13.3056 13.6878 14.763 14.1582L18.2112 15.2712L14.763 16.3842C13.3056 16.8588 12.1632 18.0012 11.6886 19.4628Z" fill="#FEA529"/>
<path d="M21.7518 7.4466L21.0756 9.5424L20.3994 7.4466C20.0928 6.4974 19.3494 5.754 18.4002 5.4474L16.3044 4.7712L18.4002 4.095C19.3494 3.7884 20.0928 3.045 20.3994 2.0958L21.0756 0L21.7518 2.0958C22.0584 3.045 22.8018 3.7884 23.751 4.095L25.8468 4.7712L23.751 5.4474C22.8018 5.7582 22.0584 6.5016 21.7518 7.4466Z" fill="#FEA529"/>
</svg>
